<svg width="61" height="26" viewBox="0 0 61 26" fill="none" xmlns="http://www.w3.org/2000/svg">
<path fill-rule="evenodd" clip-rule="evenodd" d="M22.022 5.06514C24.106 5.06514 25.8143 3.42656 25.9347 1.1521H18.1086C18.2291 3.42784 19.9345 5.06514 22.022 5.06514" fill="#1F2449"/>
<path fill-rule="evenodd" clip-rule="evenodd" d="M19.4131 24.6305H24.6305V6.36963H19.4131V24.6305Z" fill="#1F2449"/>
<path fill-rule="evenodd" clip-rule="evenodd" d="M12.5376 7.47103C12.5376 7.47103 12.0124 8.85721 9.84033 10.9692C8.49977 12.201 7.18971 13.4322 5.88145 14.6651V2.45654H1.1521V24.6305H5.88145V15.3593C7.8902 18.4495 9.90434 21.5397 12.0429 24.6305H17.7527L10.4355 14.797L18.1086 7.47103H12.5376Z" fill="#1F2449"/>
<path fill-rule="evenodd" clip-rule="evenodd" d="M59.8479 7.47103H54.2775C54.2775 7.47103 53.7522 8.85721 51.5799 10.9692C50.2392 12.201 48.9302 13.4322 47.6207 14.6651V2.45654H42.8914V24.6305H47.6207V15.3593C49.6296 18.4495 51.6445 21.5397 53.7827 24.6305H59.4931L52.1752 14.797L59.8479 7.47103Z" fill="#1F2449"/>
<path fill-rule="evenodd" clip-rule="evenodd" d="M25.9348 15.5338C25.9348 21.6427 29.3188 24.6303 33.9209 24.6303C36.1725 24.6431 38.3805 24.0147 40.2826 22.8195V20.9663C39.6973 21.2007 38.2202 21.6777 36.3572 21.6777C32.7028 21.6777 30.3676 19.0592 30.3676 14.3599C30.3676 11.5402 31.1119 8.58629 34.3271 8.58629C37.5054 8.58629 40.2826 10.8019 40.2826 10.8019V7.14692C39.5551 6.89642 37.6308 6.36963 34.3271 6.36963C29.7926 6.36963 25.9348 8.61839 25.9348 15.5338" fill="#1F2449"/>
</svg>
