<svg width="131" height="36" viewBox="0 0 131 36" fill="none" xmlns="http://www.w3.org/2000/svg">
<path fill-rule="evenodd" clip-rule="evenodd" d="M86.8419 0.762939H87.3596L92.5373 31.7179C92.9811 33.2583 93.7948 34.1385 95.422 34.1385H96.3836L96.2357 34.9454H84.5489L84.6969 34.0652H85.5844C87.2117 34.0652 88.3212 33.5517 88.0254 32.0847L86.546 22.9889H74.6374L71.1609 28.4904C68.1283 33.6251 68.794 34.0652 71.8266 34.0652H72.4923L72.4184 34.9454H62.5808L62.7287 34.0652H63.1725C65.4655 34.0652 66.2791 33.3317 69.0899 29.0038L86.8419 0.762939ZM19.2363 27.7568C19.4582 24.5293 17.9049 21.7419 12.9491 19.688L9.17683 18.1476C4.29503 16.0937 2.51983 12.8662 2.74173 9.19853C3.18553 3.40365 7.9194 0.616233 13.8367 1.05635C17.9049 1.34976 20.4198 2.37671 22.6388 3.91712L22.2689 8.83177H21.8251C20.2718 4.06382 17.3132 2.59676 13.7628 2.37671C9.99047 2.15665 6.95783 4.50394 6.73593 7.73147C6.51403 10.5189 7.4756 12.7195 11.3958 14.4066L14.3545 15.6536C18.2747 17.2674 23.6743 19.688 23.2305 26.2164C22.7867 32.2314 18.2747 36.0457 11.3219 35.6056C6.95783 35.3122 3.40743 34.1385 0.744629 32.0113L1.11446 26.4365H1.55826C3.77726 33.3317 7.54957 33.8451 10.8781 34.0652C16.2776 34.3586 19.0144 31.4978 19.2363 27.7568ZM48.4532 31.4978C48.4532 33.6251 49.1928 34.1385 51.4118 34.1385H53.335V34.9454H39.2813V34.0652H40.9825C43.4234 34.0652 44.1631 33.5517 44.1631 31.4978V3.25694H38.6156C34.4734 3.25694 32.4763 5.01741 31.8106 8.90512H31.3668V1.71653H61.1015V8.90512H60.7316C60.1399 5.01741 58.1428 3.25694 53.9267 3.25694H48.3792V31.4978H48.4532ZM120.941 34.1385C118.722 34.1385 117.982 33.6251 117.982 31.4978H117.834V3.25694H123.381C127.598 3.25694 129.595 5.01741 130.186 8.90512H130.63V1.71653H100.896V8.90512H101.339C102.005 5.01741 104.002 3.25694 108.144 3.25694H113.692V31.4978C113.692 33.5517 112.952 34.0652 110.511 34.0652H108.81V34.9454H122.864V34.1385H120.941ZM86.1762 20.2748H76.4126L84.1791 8.09824L86.1762 20.2748Z" fill="white"/>
</svg>
