<svg width="110" height="44" viewBox="0 0 110 44" fill="none" xmlns="http://www.w3.org/2000/svg">
<path fill-rule="evenodd" clip-rule="evenodd" d="M2.38553 1.87022C2.43378 2.63745 2.43378 3.30881 2.43378 6.9531H2.43364V11.1726C2.43364 13.3783 2.43364 15.2726 2.31323 16.2794C2.21687 16.9749 2.09632 17.5022 1.61441 17.5982C1.3975 17.6461 1.1083 17.6939 0.746928 17.6939C0.457723 17.6939 0.361228 17.766 0.361228 17.8858C0.361228 18.0536 0.530024 18.1256 0.843284 18.1256C1.07591 18.1256 1.34214 18.1144 1.61766 18.1029L1.61777 18.1029C1.91316 18.0905 2.2192 18.0777 2.50594 18.0777C3.08421 18.0536 3.61437 18.0536 3.87952 18.0536C4.24103 18.0536 4.96391 18.0777 5.68678 18.1256C6.01307 18.1368 6.33933 18.1533 6.62388 18.1676L6.62395 18.1676L6.62462 18.1676C6.9493 18.184 7.21962 18.1976 7.37363 18.1976C11.8075 18.1976 13.8076 15.5365 13.8076 12.971C13.8076 10.1659 11.398 8.46336 9.42198 7.79227C10.7473 6.73715 11.88 5.56251 11.88 3.59656C11.88 2.32577 11.1088 0.000278286 6.74725 0.000278286C6.37404 0.000151511 5.97579 0.0150406 5.54113 0.0312906C5.02167 0.0507113 4.45021 0.0720759 3.80736 0.0720759C3.62398 0.0720759 3.29053 0.0616389 2.87742 0.0487082C2.20491 0.0276583 1.32128 0 0.530164 0C0.168657 0.000278286 0 0.0481434 0 0.21595C0 0.383756 0.144603 0.43176 0.409615 0.43176C0.746928 0.43176 1.15668 0.455832 1.34939 0.503697C2.14457 0.671503 2.33728 1.05526 2.38553 1.87022ZM5.32555 7.36079C5.32555 7.55267 5.39785 7.60053 5.49421 7.62447C5.71111 7.67261 6.07248 7.6964 6.62684 7.6964C7.42202 7.6964 7.95218 7.60067 8.36165 7.24099C8.98817 6.73743 9.34968 5.87447 9.34968 4.69969C9.34968 3.09314 8.4099 0.983322 6.33749 0.983322C6.00018 0.983322 5.78328 0.983322 5.54232 1.03133C5.37352 1.07933 5.32541 1.1752 5.32541 1.43888V7.36079H5.32555ZM8.50626 9.27887C8.00029 8.91919 7.44593 8.75124 6.50615 8.70324C6.07234 8.67931 5.83152 8.67931 5.47002 8.67931C5.37366 8.67931 5.32555 8.72731 5.32555 8.84711V14.5293C5.32555 16.1118 5.39785 16.5194 6.16884 16.831C6.81941 17.0948 7.37363 17.1187 7.92785 17.1187C9.01237 17.1187 10.8437 16.5431 10.8437 14.0497C10.8437 12.5632 10.3377 10.5494 8.50626 9.27887ZM17.0598 8.60751C17.0598 7.65644 17.0621 6.94341 17.0638 6.39313V6.39291C17.0678 5.15386 17.0691 4.74004 17.0357 4.29172C16.9875 3.57249 16.7948 3.38075 16.12 3.18887C15.9513 3.14073 15.5898 3.11694 15.3008 3.11694C15.0597 3.11694 14.9394 3.04486 14.9394 2.90113C14.9394 2.75725 15.0839 2.70925 15.3971 2.70925C16.0467 2.70925 16.7913 2.72504 17.4265 2.73851C17.8989 2.74852 18.3107 2.75725 18.5778 2.75725C18.8182 2.75725 19.2418 2.74739 19.705 2.7366L19.705 2.7366C20.2635 2.72359 20.8794 2.70925 21.301 2.70925C21.6142 2.70925 21.7587 2.75725 21.7587 2.90113C21.7587 3.04486 21.6383 3.11694 21.4215 3.11694C21.1913 3.11694 21.0711 3.13876 20.8301 3.18253L20.7951 3.18887C20.2408 3.28474 20.0721 3.57249 20.0237 4.29172C19.9756 4.93899 19.9756 5.5146 19.9756 8.60714V8.60751V11.4606C19.9756 14.4336 20.5539 15.5844 21.59 16.3995C22.5298 17.1429 23.542 17.2146 24.265 17.2146C25.1805 17.2146 26.265 16.9509 27.1083 16.1357C28.289 15.0328 28.3373 13.2586 28.3373 11.1727V8.60751C28.3373 5.57992 28.3142 4.96456 28.2906 4.33264L28.289 4.29172C28.2408 3.59656 28.0721 3.38075 27.3975 3.18887C27.2288 3.14073 26.8673 3.11694 26.6262 3.11694C26.3853 3.11694 26.2649 3.04486 26.2649 2.90113C26.2649 2.75725 26.4095 2.70925 26.6987 2.70925C27.6425 2.70925 28.8418 2.74561 29.1528 2.75504L29.2288 2.75725C29.3136 2.75725 29.5443 2.75132 29.8434 2.74363L29.8435 2.74362L29.8436 2.74362L29.8437 2.74362L29.8438 2.74362L29.844 2.74361L29.844 2.74361C30.3957 2.72942 31.1799 2.70925 31.7108 2.70925C32 2.70925 32.1448 2.75725 32.1448 2.90113C32.1448 3.04486 32.0242 3.11694 31.7833 3.11694C31.5531 3.11694 31.4328 3.13877 31.1915 3.18256L31.1567 3.18887C30.5783 3.28474 30.434 3.57249 30.3856 4.29172L30.3839 4.33683V4.33685C30.3605 4.96718 30.3374 5.58665 30.3374 8.60751V10.7893C30.3374 13.0669 30.0964 15.4646 28.3132 16.927C26.8191 18.1737 25.2047 18.3894 23.8311 18.3894C22.7225 18.3894 20.5298 18.3415 18.9876 16.9989C17.9032 16.0638 17.0596 14.5535 17.0596 11.6045V8.60751H17.0598ZM33.7104 17.1666C33.7104 17.622 33.7825 17.7182 34.12 17.8619C35.0356 18.2697 36.337 18.3892 37.5657 18.3891C38.6982 18.3891 40.0958 18.2696 41.1079 17.5502C42.65 16.4714 43.2286 15.2484 43.2286 13.7381C43.2286 11.892 42.361 10.3336 39.5658 8.79897L38.6982 8.31962C36.7946 7.26464 36.4573 6.54555 36.4573 5.63431C36.4573 4.24371 37.831 3.45269 39.3489 3.45269C40.7228 3.45269 41.3973 4.02804 41.7105 4.41152C42.1684 4.93901 42.2649 5.56237 42.2649 5.75425C42.2649 5.99399 42.337 6.11379 42.4816 6.11379C42.6503 6.11379 42.7468 5.89812 42.7468 5.46664C42.7468 4.3235 42.7833 3.70247 42.8044 3.34429C42.813 3.19914 42.819 3.09715 42.819 3.02107C42.819 2.87705 42.7227 2.80512 42.5299 2.75725C41.9758 2.61352 40.8912 2.42164 39.5177 2.42164C36.578 2.42164 34.1682 4.02804 34.1682 6.52148C34.1682 8.31948 34.9875 9.68628 37.4935 11.1487L38.7225 11.868C40.6019 12.971 40.819 13.8581 40.819 14.7452C40.819 16.1837 39.7106 17.3345 37.8792 17.3345C36.5538 17.3345 34.9634 16.8308 34.5056 15.3205C34.385 14.9608 34.3127 14.5293 34.3127 14.2656C34.3127 14.1217 34.2886 13.9299 34.0958 13.9299C33.927 13.9299 33.8306 14.1458 33.8306 14.4575L33.8264 14.5158C33.797 14.922 33.7104 16.1197 33.7104 17.1666ZM46.7947 8.60751C46.7947 5.51464 46.7947 4.93915 46.7708 4.29172C46.7225 3.59656 46.5056 3.35668 46.0478 3.21281C45.8068 3.14073 45.5417 3.11708 45.2766 3.11708C45.0599 3.11708 44.9392 3.06907 44.9392 2.87719C44.9392 2.75739 45.1078 2.70939 45.4453 2.70939C45.8705 2.70939 46.4816 2.72311 47.0504 2.73588C47.5454 2.747 48.0083 2.75739 48.2887 2.75739C48.5251 2.75739 48.9291 2.74785 49.3769 2.73728L49.3769 2.73728C49.9335 2.72413 50.5577 2.70939 51.0118 2.70939C51.2768 2.70939 51.4456 2.75739 51.4456 2.87719C51.4456 3.06907 51.3252 3.11708 51.1082 3.11708C50.8914 3.11708 50.7227 3.14087 50.4818 3.18901C49.9034 3.28488 49.7347 3.57263 49.6865 4.29186C49.6384 4.93915 49.6384 5.51478 49.6384 8.60765V12.2039C49.6384 14.1699 49.6384 15.8004 49.7346 16.6636C49.8069 17.2149 49.9516 17.5266 50.578 17.6224C50.8671 17.6706 51.3491 17.6945 51.6624 17.6945C51.9033 17.6945 51.9997 17.8143 51.9997 17.9105C51.9997 18.0542 51.831 18.1261 51.5899 18.1261C50.7395 18.1261 49.8712 18.0995 49.1914 18.0786C48.754 18.0652 48.3946 18.0542 48.1681 18.0542C47.9607 18.0542 47.5746 18.0675 47.1348 18.0827C46.5531 18.1028 45.8774 18.1261 45.3971 18.1261C45.1319 18.1261 44.9874 18.0542 44.9874 17.9105C44.9874 17.8144 45.0597 17.6945 45.3248 17.6945C45.638 17.6945 45.879 17.6706 46.0717 17.6224C46.5055 17.5267 46.626 17.239 46.6982 16.6397C46.7944 15.8005 46.7944 14.17 46.7944 12.2041V8.60751H46.7947ZM57.6382 17.5504C57.2286 17.4063 56.9635 16.9269 56.9154 15.3445L56.6741 7.02476H56.7463C56.8946 7.15488 57.2828 7.56134 57.8274 8.13163C58.7877 9.13723 60.2344 10.6522 61.7106 12.0598C63.9272 14.1937 66.5779 16.711 67.9034 17.9337C68.1204 18.1496 68.4095 18.3655 68.7708 18.3655C68.9396 18.3655 69.1083 18.1736 69.1083 17.7182L69.3492 4.86721C69.3734 3.71636 69.542 3.35668 70.1204 3.18887C70.3855 3.11694 70.554 3.11694 70.7711 3.11694C71.012 3.11694 71.1324 3.02093 71.1324 2.90113C71.1324 2.73318 70.9399 2.70925 70.6507 2.70925C69.9515 2.70925 69.3622 2.7311 68.9787 2.74532C68.7938 2.75217 68.6568 2.75725 68.5784 2.75725C68.3992 2.75725 68.1167 2.7499 67.7729 2.74096C67.2378 2.72704 66.5542 2.70925 65.8793 2.70925C65.5661 2.70925 65.3492 2.73332 65.3492 2.90113C65.3492 3.02107 65.4216 3.11694 65.6866 3.11694C65.9757 3.11694 66.4821 3.11694 66.7953 3.23674C67.3012 3.42848 67.494 3.78816 67.5178 5.03488L67.735 14.0978H67.6386C67.4987 13.9693 66.8586 13.3241 66.0643 12.5233C65.0805 11.5315 63.8601 10.3011 63.06 9.51848C60.459 6.991 57.7892 4.29312 56.8575 3.3516C56.6844 3.17669 56.5713 3.0624 56.5298 3.02107L56.4469 2.93829C56.1237 2.61487 55.8587 2.3497 55.6142 2.3497C55.3972 2.3497 55.2527 2.63745 55.2527 3.045L55.0599 15.1287C55.0358 16.9029 54.9635 17.4545 54.4094 17.5984C54.1199 17.6702 53.7345 17.6941 53.4453 17.6941C53.2526 17.6941 53.108 17.7902 53.108 17.91C53.108 18.1019 53.3007 18.1257 53.5899 18.1257C54.3527 18.1257 55.0798 18.0901 55.511 18.069L55.5111 18.069L55.5116 18.069C55.6931 18.0601 55.822 18.0538 55.8791 18.0538C56.0125 18.0538 56.2183 18.0624 56.4872 18.0737L56.4873 18.0737C56.9952 18.095 57.7284 18.1257 58.6263 18.1257C58.9153 18.1257 59.1082 18.0778 59.1082 17.91C59.1082 17.7901 58.9876 17.6941 58.7467 17.6941C58.4094 17.6941 57.9997 17.6702 57.6382 17.5504ZM74.8429 8.60751C74.8429 5.51464 74.8429 4.93915 74.8186 4.29172C74.7705 3.59656 74.5777 3.38075 73.9028 3.18887C73.7343 3.14073 73.373 3.11694 73.0597 3.11694C72.8427 3.11694 72.6982 3.04486 72.6982 2.90113C72.6982 2.75725 72.8668 2.70925 73.1801 2.70925C73.8182 2.70925 74.5361 2.72516 75.1455 2.73866C75.5947 2.74861 75.9848 2.75725 76.2404 2.75725C76.3974 2.75725 76.7723 2.75854 77.2603 2.76022L77.2605 2.76022C78.8698 2.76575 81.7093 2.77551 82.0237 2.75725C82.3114 2.73929 82.5723 2.69476 82.7562 2.66337C82.8188 2.65269 82.8724 2.64353 82.9152 2.63745C82.9674 2.6271 83.0195 2.60775 83.0697 2.58914C83.1355 2.56473 83.1979 2.54158 83.2525 2.54158C83.3731 2.54158 83.3971 2.63745 83.3971 2.73332C83.3971 2.77789 83.3856 2.83167 83.3682 2.91248L83.3681 2.91289L83.3681 2.91296C83.3293 3.09308 83.2617 3.40731 83.2283 4.05212C83.2202 4.12505 83.2094 4.27466 83.1967 4.45005L83.1964 4.45413L83.1962 4.4558L83.1962 4.45604L83.1962 4.45638C83.1714 4.79903 83.1396 5.23705 83.1081 5.3947L83.1034 5.41345C83.0776 5.51841 83.0256 5.73032 82.8671 5.73032C82.7225 5.73032 82.6982 5.63445 82.6982 5.46664C82.6982 5.32277 82.6742 4.96308 82.5538 4.7232C82.3849 4.36366 82.2164 4.07605 81.1561 3.98004C80.7947 3.9319 78.2646 3.88417 77.8307 3.88417C77.7345 3.88417 77.6861 3.95611 77.6861 4.07605V9.11079C77.6861 9.23073 77.7103 9.32674 77.8307 9.32674C78.3127 9.32674 81.0598 9.32674 81.5418 9.27887C82.0479 9.23073 82.361 9.18287 82.5538 8.96719C82.6099 8.91933 82.6553 8.87414 82.6945 8.83513L82.6946 8.83507C82.7733 8.75675 82.8269 8.70338 82.8913 8.70338C82.9875 8.70338 83.06 8.79925 83.06 8.91933C83.06 8.9965 83.0398 9.16321 82.9934 9.54767V9.54776C82.9677 9.76013 82.934 10.0389 82.8913 10.4058C82.8428 10.8135 82.7948 11.6286 82.7948 11.7723C82.7948 11.9401 82.7706 12.2279 82.578 12.2279C82.4334 12.2279 82.3849 12.1558 82.3849 12.0601C82.3763 11.9826 82.3708 11.8991 82.3651 11.8116L82.365 11.8111C82.3548 11.6547 82.3437 11.4857 82.3127 11.3166C82.1923 10.9091 81.927 10.5974 81.132 10.5256C80.7464 10.4774 78.3367 10.4296 77.8068 10.4296C77.7103 10.4296 77.6861 10.5256 77.6861 10.6455V12.2759C77.6861 12.4806 77.6841 12.7747 77.6818 13.1032V13.1033V13.1034V13.1036V13.1039V13.1043V13.1048V13.1055V13.1056V13.1057V13.1059V13.1061C77.6762 13.8925 77.6693 14.8744 77.6861 15.2967C77.7345 16.6873 78.3848 16.9989 80.5539 16.9989C81.1081 16.9989 81.9996 16.975 82.554 16.7351C83.084 16.4954 83.325 16.0639 83.4694 15.2249C83.518 15.0089 83.5659 14.9132 83.7107 14.9132C83.8793 14.9132 83.9035 15.177 83.9035 15.3925C83.9035 15.8481 83.7347 17.2388 83.6142 17.6464C83.4696 18.1737 83.277 18.1737 82.4817 18.1737C80.8913 18.1737 79.6141 18.1498 78.5781 18.1019C78.341 18.0964 78.1164 18.0909 77.9037 18.0857L77.9032 18.0857L77.9026 18.0856L77.902 18.0856C77.1858 18.0681 76.6028 18.0538 76.1201 18.0538C76.0216 18.0538 75.887 18.0578 75.7277 18.0625L75.7276 18.0625C75.4969 18.0694 75.2145 18.0778 74.9153 18.0778C74.4092 18.1019 73.8791 18.1257 73.4453 18.1257C73.1802 18.1257 73.0356 18.0538 73.0356 17.91C73.0356 17.814 73.1079 17.6941 73.3731 17.6941C73.6862 17.6941 73.9272 17.6702 74.12 17.622C74.5538 17.5263 74.6741 17.1428 74.7464 16.5431C74.8429 15.6801 74.8429 14.0737 74.8429 12.2035V8.60751ZM86.1435 17.1666C86.1435 17.622 86.2159 17.7182 86.5532 17.8619C87.4689 18.2697 88.7701 18.3892 89.9988 18.3891C91.1316 18.3891 92.5291 18.2696 93.5411 17.5502C95.0833 16.4714 95.6617 15.2484 95.6617 13.7381C95.6617 11.892 94.7943 10.3336 91.9989 8.79897L91.1316 8.31962C89.2278 7.26464 88.8905 6.54555 88.8905 5.63431C88.8905 4.24371 90.2641 3.45269 91.7823 3.45269C93.1559 3.45269 93.8306 4.02804 94.1438 4.41152C94.6018 4.93901 94.6981 5.56237 94.6981 5.75425C94.6981 5.99399 94.7704 6.11379 94.9149 6.11379C95.0835 6.11379 95.18 5.89812 95.18 5.46664C95.18 4.3235 95.2166 3.70247 95.2378 3.34429C95.2463 3.19914 95.2523 3.09715 95.2523 3.02107C95.2523 2.87705 95.156 2.80512 94.9631 2.75725C94.4089 2.61352 93.3245 2.42164 91.9511 2.42164C89.0112 2.42164 86.6013 4.02804 86.6013 6.52148C86.6013 8.31948 87.4208 9.68628 89.9269 11.1487L91.1558 11.868C93.0353 12.971 93.2521 13.8581 93.2521 14.7452C93.2521 16.1837 92.1438 17.3345 90.3123 17.3345C88.9871 17.3345 87.3965 16.8308 86.9389 15.3205C86.8185 14.9608 86.7459 14.5293 86.7459 14.2656C86.7459 14.1217 86.7219 13.9299 86.529 13.9299C86.3602 13.9299 86.264 14.1458 86.264 14.4575L86.2601 14.5117L86.2601 14.5121C86.2308 14.9146 86.1435 16.1165 86.1435 17.1666ZM98.5532 17.8619C98.216 17.7182 98.1435 17.622 98.1435 17.1666C98.1435 16.115 98.231 14.911 98.2601 14.5103V14.5103L98.2639 14.4575C98.2639 14.1458 98.3603 13.9299 98.5291 13.9299C98.7218 13.9299 98.7459 14.1217 98.7459 14.2656C98.7459 14.5293 98.8183 14.9608 98.9387 15.3205C99.3964 16.8308 100.987 17.3345 102.312 17.3345C104.144 17.3345 105.252 16.1837 105.252 14.7452C105.252 13.8581 105.035 12.971 103.156 11.868L101.927 11.1487C99.4206 9.68628 98.6014 8.31948 98.6014 6.52148C98.6014 4.02804 101.011 2.42164 103.951 2.42164C105.325 2.42164 106.409 2.61352 106.963 2.75725C107.156 2.80512 107.252 2.87705 107.252 3.02107C107.252 3.09715 107.246 3.19914 107.238 3.34429C107.216 3.70247 107.18 4.3235 107.18 5.46664C107.18 5.89812 107.083 6.11379 106.915 6.11379C106.77 6.11379 106.698 5.99399 106.698 5.75425C106.698 5.56237 106.601 4.93901 106.144 4.41152C105.83 4.02804 105.156 3.45269 103.782 3.45269C102.264 3.45269 100.89 4.24371 100.89 5.63431C100.89 6.54555 101.228 7.26464 103.131 8.31962L103.999 8.79897C106.794 10.3336 107.662 11.892 107.662 13.7381C107.662 15.2484 107.083 16.4714 105.541 17.5502C104.529 18.2696 103.131 18.3891 101.999 18.3891C100.77 18.3892 99.4687 18.2697 98.5532 17.8619ZM3.37314 27.481C3.42138 28.2481 3.42138 28.9193 3.42138 32.5637H3.42124V36.7834C3.42124 39.1089 3.42124 41.0033 3.30083 42.01C3.22839 42.7053 3.08379 43.1128 2.60201 43.2088C2.38511 43.2566 2.0959 43.3046 1.7344 43.3046C1.44519 43.3046 1.34883 43.3766 1.34883 43.4964C1.34883 43.6642 1.51763 43.7362 1.83075 43.7362C2.37901 43.7362 3.1065 43.7129 3.73396 43.6928H3.73409H3.73427L3.73451 43.6928C4.21005 43.6776 4.62808 43.6642 4.86699 43.6642C5.12084 43.6642 5.50668 43.6752 5.97732 43.6885C6.71313 43.7094 7.65622 43.7362 8.62625 43.7362C8.89126 43.7362 9.08397 43.6642 9.08397 43.4964C9.08397 43.3766 8.96356 43.3046 8.69841 43.3046C8.33704 43.3046 7.80688 43.2567 7.46956 43.2088C6.74655 43.1128 6.57789 42.6813 6.50545 42.034C6.40924 41.0033 6.40924 39.109 6.40924 36.7834V32.5639C6.40924 28.9194 6.40924 28.2483 6.45748 27.4811C6.50559 26.6419 6.69844 26.2341 7.34901 26.1146C7.63822 26.0663 7.83093 26.0422 8.07203 26.0422C8.31299 26.0422 8.45759 25.9944 8.45759 25.8028C8.45759 25.6588 8.26474 25.6108 7.95148 25.6108C7.44596 25.6108 6.78616 25.6327 6.19514 25.6524H6.19507H6.19499L6.19487 25.6524C5.71556 25.6684 5.28151 25.6828 5.01173 25.6828C4.68598 25.6828 4.18222 25.6672 3.64443 25.6504L3.64403 25.6504C3.02824 25.6313 2.3679 25.6108 1.87914 25.6108C1.49358 25.6108 1.30087 25.6588 1.30087 25.8028C1.30087 25.9944 1.44533 26.0422 1.68643 26.0422C1.97549 26.0422 2.28875 26.0662 2.55391 26.1382C3.08393 26.2582 3.32489 26.6656 3.37314 27.481ZM15.6865 40.9551C15.7347 42.5375 15.9997 43.017 16.4095 43.161C16.7709 43.2808 17.1806 43.3047 17.5179 43.3047C17.7589 43.3047 17.8794 43.4006 17.8794 43.5207C17.8794 43.6885 17.6867 43.7363 17.3975 43.7363C16.4998 43.7363 15.7667 43.7056 15.2589 43.6843L15.2584 43.6843C14.9895 43.673 14.7838 43.6644 14.6503 43.6644C14.5932 43.6644 14.464 43.6707 14.2822 43.6796C13.851 43.7007 13.124 43.7363 12.3612 43.7363C12.072 43.7363 11.8793 43.7123 11.8793 43.5207C11.8793 43.4007 12.0239 43.3047 12.2166 43.3047C12.5058 43.3047 12.8913 43.2808 13.1805 43.209C13.7348 43.0651 13.8071 42.5138 13.8311 40.7395L14.024 28.6558C14.024 28.2482 14.1684 27.9606 14.3853 27.9606C14.6297 27.9606 14.8944 28.2253 15.2175 28.5483L15.3011 28.6317C15.3426 28.673 15.4556 28.7872 15.6285 28.9619L15.6286 28.962L15.6286 28.9621L15.6287 28.9621L15.6287 28.9622L15.629 28.9624L15.6292 28.9626L15.6293 28.9627C16.5614 29.9047 19.2307 32.6021 21.8314 35.1291C22.6317 35.912 23.8528 37.1431 24.8368 38.1351C25.6305 38.9353 26.27 39.5799 26.4099 39.7084H26.5061L26.2893 30.6455C26.2651 29.3988 26.0724 29.0392 25.5663 28.8472C25.2531 28.7277 24.7471 28.7277 24.4577 28.7277C24.1927 28.7277 24.1204 28.6317 24.1204 28.5117C24.1204 28.3439 24.3375 28.3199 24.6506 28.3199C25.3255 28.3199 26.0092 28.3377 26.5442 28.3517C26.888 28.3606 27.1704 28.368 27.3495 28.368C27.428 28.368 27.5651 28.3629 27.75 28.356C28.1336 28.3418 28.7229 28.3199 29.4221 28.3199C29.7111 28.3199 29.9038 28.3439 29.9038 28.5117C29.9038 28.6315 29.7833 28.7277 29.5423 28.7277C29.3253 28.7277 29.1568 28.7277 28.8916 28.7995C28.3134 28.9674 28.1447 29.3271 28.1205 30.4778L27.8794 43.3288C27.8794 43.7842 27.7109 43.9761 27.5422 43.9761C27.1807 43.9761 26.8917 43.7604 26.6746 43.5443C25.3494 42.3217 22.6986 39.8043 20.4817 37.6704C19.005 36.2624 17.5578 34.7467 16.5975 33.7412C16.0535 33.1715 15.6659 32.7655 15.5177 32.6355H15.4454L15.6865 40.9551ZM34.0716 42.7772C34.0716 43.2326 34.144 43.3288 34.4812 43.4726C35.3971 43.8802 36.6985 44.0001 37.9268 44C39.0593 44 40.4571 43.8801 41.4691 43.1608C43.0112 42.0821 43.5895 40.8593 43.5895 39.3487C43.5895 37.5027 42.7222 35.9442 39.9269 34.4099L39.0593 33.9304C37.1558 32.8755 36.8185 32.1562 36.8185 31.2451C36.8185 29.8545 38.1921 29.0633 39.7101 29.0633C41.0837 29.0633 41.7583 29.6387 42.0716 30.0223C42.5296 30.5499 42.6258 31.1731 42.6258 31.3649C42.6258 31.6046 42.6983 31.7244 42.8427 31.7244C43.0117 31.7244 43.1079 31.5089 43.1079 31.0773C43.1079 29.9341 43.1446 29.3131 43.1657 28.9549V28.9549C43.1743 28.8097 43.1803 28.7078 43.1803 28.6317C43.1803 28.4878 43.084 28.416 42.8911 28.368C42.3369 28.224 41.2525 28.0323 39.8789 28.0323C36.939 28.0323 34.5295 29.6387 34.5295 32.1321C34.5295 33.9304 35.3487 35.2968 37.8548 36.7596L39.0839 37.4788C40.9633 38.5816 41.1802 39.4688 41.1802 40.3557C41.1802 41.7943 40.0718 42.945 38.2405 42.945C36.915 42.945 35.3245 42.4416 34.8668 40.9312C34.7464 40.5717 34.6741 40.14 34.6741 39.8762C34.6741 39.7324 34.6499 39.5406 34.4572 39.5406C34.2884 39.5406 34.192 39.7566 34.192 40.0681L34.1877 40.1283C34.1581 40.5363 34.0716 41.7321 34.0716 42.7772ZM49.1802 34.2178C49.1802 31.125 49.1802 30.5499 49.1563 29.9023C49.1081 29.2072 48.8912 28.9673 48.4333 28.8234C48.1923 28.7515 47.9272 28.7277 47.6622 28.7277C47.4451 28.7277 47.3247 28.6795 47.3247 28.4878C47.3247 28.368 47.4934 28.3199 47.8308 28.3199C48.2561 28.3199 48.8672 28.3336 49.4359 28.3464C49.9309 28.3576 50.3939 28.368 50.6742 28.368C50.9106 28.368 51.3144 28.3584 51.762 28.3478L51.7623 28.3478C52.3189 28.3347 52.9432 28.3199 53.3973 28.3199C53.6624 28.3199 53.8312 28.368 53.8312 28.4878C53.8312 28.6795 53.7107 28.7277 53.4937 28.7277C53.2769 28.7277 53.1083 28.7516 52.8673 28.7995C52.2889 28.8955 52.1202 29.1832 52.072 29.9025C52.0239 30.5499 52.0239 31.1251 52.0239 34.218V37.8145C52.0239 39.7806 52.0239 41.411 52.1201 42.2741C52.1924 42.8256 52.3372 43.1372 52.9635 43.2329C53.2526 43.281 53.7347 43.305 54.0479 43.305C54.2889 43.305 54.3851 43.4248 54.3851 43.5209C54.3851 43.6647 54.2166 43.7366 53.9755 43.7366C53.125 43.7366 52.2566 43.71 51.5768 43.6891H51.5766H51.5765H51.5763L51.5761 43.6891L51.5741 43.689C51.138 43.6757 50.7796 43.6647 50.5537 43.6647C50.3469 43.6647 49.9628 43.6779 49.525 43.693L49.5233 43.6931L49.5227 43.6931L49.5209 43.6932L49.5204 43.6932L49.5201 43.6932L49.5199 43.6932H49.5198H49.5197L49.5195 43.6932C48.9379 43.7133 48.2627 43.7366 47.7826 43.7366C47.5174 43.7366 47.3728 43.6647 47.3728 43.5209C47.3728 43.4249 47.4451 43.305 47.7103 43.305C48.0235 43.305 48.2644 43.281 48.4572 43.2329C48.891 43.1372 49.0116 42.8494 49.0837 42.2501C49.1799 41.4111 49.1799 39.7808 49.1799 37.8147V34.2178H49.1802ZM62.8913 40.5955C62.8671 40.1879 62.8431 38.6295 62.8431 36.4715H62.843V33.9063C62.843 32.3002 62.843 30.6218 62.867 29.9264C62.867 29.6868 62.9395 29.5908 63.1322 29.5189C63.3008 29.423 63.9995 29.3751 64.4336 29.3751C66.0962 29.3751 68.4095 29.5908 70.3615 31.3171C71.3012 32.1321 72.3375 33.8106 72.3375 36.3999C72.3375 38.5096 71.9036 40.3318 70.5301 41.4586C69.2529 42.5137 67.8311 42.8492 65.9034 42.8492C64.2407 42.8492 63.3975 42.4177 63.1323 42.034C62.9639 41.8182 62.9153 41.099 62.8913 40.5955ZM59.9997 34.2178C59.9997 31.125 59.9997 30.5499 59.9754 29.9023C59.9271 29.2072 59.7344 28.9912 59.0598 28.7994C58.891 28.7515 58.5295 28.7276 58.2164 28.7276C57.9995 28.7276 57.855 28.6555 57.855 28.5116C57.855 28.3679 58.0237 28.3197 58.3369 28.3197C58.9749 28.3197 59.6926 28.3357 60.3019 28.3492H60.3019L60.3021 28.3492H60.3022C60.7514 28.3592 61.1416 28.3679 61.3974 28.3679C61.6682 28.3679 62.0896 28.3595 62.5814 28.3498L62.5815 28.3498H62.5816H62.5816C63.2708 28.3361 64.0981 28.3197 64.8433 28.3197C67.4939 28.3197 71.0602 28.3197 73.3735 30.6454C74.4338 31.7005 75.3736 33.4026 75.3736 35.8244C75.3736 38.3899 74.2652 40.3318 73.0603 41.5066C72.0964 42.4654 69.8552 43.904 65.9515 43.904C65.3623 43.904 64.6887 43.862 64.0274 43.8208C63.8233 43.808 63.6204 43.7954 63.4215 43.784C62.5781 43.712 61.8068 43.6642 61.2768 43.6642C61.1784 43.6642 61.044 43.6683 60.8849 43.673L60.8844 43.673C60.6537 43.6799 60.3713 43.6883 60.072 43.6883C59.566 43.7121 59.0357 43.7362 58.6018 43.7362C58.3369 43.7362 58.1923 43.6642 58.1923 43.5205C58.1923 43.4245 58.2646 43.3046 58.5295 43.3046C58.8427 43.3046 59.0838 43.2806 59.2767 43.2325C59.7105 43.1368 59.8309 42.7533 59.9032 42.1537C59.9996 41.2908 59.9996 39.6843 59.9996 37.8141V34.2178H59.9997ZM80.7705 29.9023C80.7946 30.5499 80.7946 31.125 80.7946 34.2178L80.7948 37.8141C80.7948 39.6843 80.7948 41.2908 80.6985 42.1536C80.6262 42.7531 80.5058 43.1366 80.072 43.2323C79.8794 43.2805 79.6382 43.3044 79.3249 43.3044C79.06 43.3044 78.9879 43.4244 78.9879 43.5204C78.9879 43.6641 79.1323 43.736 79.3971 43.736C79.8313 43.736 80.3615 43.712 80.8674 43.6882C81.1666 43.6882 81.449 43.6798 81.6797 43.6729L81.6801 43.6729C81.8392 43.6681 81.9737 43.6641 82.0722 43.6641C82.5511 43.6641 83.1288 43.6782 83.8376 43.6954C84.0557 43.7008 84.2863 43.7064 84.5302 43.712C85.5662 43.7603 86.8434 43.784 88.4339 43.784C89.2291 43.784 89.4216 43.784 89.5661 43.2566C89.6868 42.8492 89.8556 41.4584 89.8556 41.0033C89.8556 40.7875 89.8313 40.5238 89.6627 40.5238C89.5179 40.5238 89.4699 40.6195 89.4215 40.8353C89.2773 41.6744 89.0361 42.1061 88.5059 42.3456C87.9517 42.5855 87.0599 42.6094 86.506 42.6094C84.3369 42.6094 83.6866 42.2977 83.6382 40.9073C83.6213 40.4844 83.6282 39.5005 83.6338 38.7136C83.6361 38.3852 83.6382 38.0911 83.6382 37.8863V36.256C83.6382 36.1361 83.6623 36.0402 83.7589 36.0402C84.2888 36.0402 86.6987 36.0881 87.0841 36.1361C87.8791 36.208 88.1444 36.5197 88.2648 36.9274C88.2955 37.0959 88.3066 37.2643 88.3169 37.4202L88.3169 37.4203L88.317 37.4206C88.3228 37.5086 88.3283 37.5927 88.337 37.6705C88.337 37.7665 88.3854 37.8385 88.5301 37.8385C88.7227 37.8385 88.7467 37.5506 88.7467 37.3829C88.7467 37.2391 88.7947 36.424 88.8434 36.0163C88.8858 35.6522 88.9193 35.3748 88.9448 35.163C88.9916 34.775 89.0119 34.6073 89.0119 34.5297C89.0119 34.4099 88.9396 34.314 88.8434 34.314C88.779 34.314 88.7254 34.3673 88.6469 34.4454C88.6076 34.4845 88.5621 34.5298 88.5058 34.5778C88.3129 34.7935 87.9997 34.8413 87.4938 34.8894C87.0118 34.9372 84.2646 34.9372 83.7827 34.9372C83.6623 34.9372 83.6382 34.8413 83.6382 34.7215V29.6867C83.6382 29.5666 83.6865 29.4948 83.7827 29.4948C84.2165 29.4948 86.7466 29.5425 87.1081 29.5905C88.1683 29.6867 88.337 29.9743 88.5058 30.3338C88.626 30.5737 88.6502 30.9334 88.6502 31.0771C88.6502 31.2451 88.6746 31.3409 88.819 31.3409C88.978 31.3409 89.0299 31.1282 89.0555 31.0234L89.06 31.0052C89.0916 30.8475 89.1234 30.4094 89.1482 30.0667C89.1612 29.8887 89.1722 29.7365 89.1804 29.6627C89.2138 29.0179 89.2814 28.7037 89.3201 28.5236L89.3202 28.5235L89.3203 28.5231C89.3376 28.4423 89.3492 28.3885 89.3492 28.3439C89.3492 28.2481 89.325 28.1521 89.2046 28.1521C89.1497 28.1521 89.0871 28.1753 89.0212 28.1998C88.9712 28.2183 88.9192 28.2376 88.8671 28.2481C88.8243 28.2542 88.7705 28.2633 88.7078 28.274C88.5239 28.3054 88.2632 28.3499 87.9756 28.3679C87.6612 28.3861 84.8218 28.3764 83.2124 28.3708C82.7243 28.3692 82.3493 28.3679 82.1923 28.3679C81.9366 28.3679 81.5464 28.3592 81.0972 28.3492H81.0971H81.097C80.4878 28.3357 79.77 28.3197 79.1319 28.3197C78.8188 28.3197 78.65 28.3679 78.65 28.5116C78.65 28.6555 78.7947 28.7276 79.0114 28.7276C79.3246 28.7276 79.6863 28.7515 79.8548 28.7994C80.5297 28.9912 80.7223 29.2072 80.7705 29.9023ZM97.9033 35.8005C97.9033 36.0161 97.9514 36.0881 98.096 36.16C98.5537 36.304 99.1802 36.3519 99.7107 36.3519C100.554 36.3519 100.843 36.2799 101.204 36.0161C101.855 35.5607 102.578 34.6735 102.578 32.9952C102.578 30.1181 100.602 29.375 99.3489 29.375C98.819 29.375 98.3129 29.3988 98.096 29.4469C97.9514 29.4949 97.9033 29.5666 97.9033 29.7345V35.8005ZM95.1802 29.9023C95.2044 30.5499 95.2044 31.125 95.2044 34.2178H95.2041V37.8141C95.2041 39.6843 95.2041 41.2908 95.1076 42.1537C95.0353 42.7533 94.9151 43.1368 94.4812 43.2325C94.2885 43.2806 94.0474 43.3046 93.7343 43.3046C93.4691 43.3046 93.3968 43.4245 93.3968 43.5205C93.3968 43.6642 93.5414 43.7362 93.8064 43.7362C94.3035 43.7362 94.9763 43.7112 95.5289 43.6907C95.914 43.6764 96.2408 43.6642 96.409 43.6642C96.514 43.6642 96.7818 43.6723 97.1376 43.6831C97.8426 43.7044 98.8936 43.7362 99.7104 43.7362C99.9753 43.7362 100.144 43.6642 100.144 43.5205C100.144 43.4244 100.048 43.3046 99.8789 43.3046C99.6139 43.3046 99.156 43.2806 98.8428 43.2325C98.1922 43.1368 98.0958 42.7533 98.0236 42.1537C97.9271 41.2906 97.9031 39.7081 97.9031 37.8141V37.5265C97.9031 37.4066 97.9754 37.3587 98.0718 37.3587L99.9753 37.4066C100.12 37.4066 100.241 37.4305 100.361 37.5503C100.479 37.6887 100.72 38.0351 101.026 38.4741C101.408 39.0237 101.892 39.7184 102.361 40.3316C103.542 41.914 104.337 42.8731 105.253 43.3285C105.807 43.6162 106.385 43.736 107.566 43.736H109.59C109.855 43.736 110 43.6882 110 43.5204C110 43.4242 109.904 43.3044 109.735 43.3044C109.566 43.3044 109.446 43.3044 109.229 43.2564C109.21 43.2524 109.19 43.2483 109.168 43.2439C108.806 43.1705 108.078 43.0227 106.964 41.914C105.753 40.7101 104.349 38.9891 102.605 36.8538C102.509 36.7356 102.412 36.6162 102.313 36.4955C104.385 34.8412 105.253 33.4986 105.253 31.9881C105.253 30.6216 104.361 29.5905 103.759 29.183C102.626 28.4398 101.084 28.3197 99.7345 28.3197C99.4178 28.3197 98.7984 28.3311 98.1627 28.3428C97.4925 28.3552 96.8042 28.3679 96.4332 28.3679C96.2663 28.3679 95.9638 28.3607 95.5916 28.352C94.9966 28.3379 94.2235 28.3197 93.5416 28.3197C93.2284 28.3197 93.0598 28.3679 93.0598 28.5116C93.0598 28.6555 93.2042 28.7276 93.4212 28.7276C93.7344 28.7276 94.0956 28.7515 94.2643 28.7994C94.9392 28.9912 95.1319 29.2072 95.1802 29.9023Z" fill="white"/>
</svg>
