<svg width="72" height="28" viewBox="0 0 72 28" fill="none" xmlns="http://www.w3.org/2000/svg">
<path fill-rule="evenodd" clip-rule="evenodd" d="M27.954 13.7791C27.954 6.14523 21.7339 0 13.9579 0C6.18192 0 0 6.14523 0 13.7791C0 21.4129 6.18192 27.4811 13.9579 27.4811C21.7339 27.4811 27.954 21.4129 27.954 13.7791ZM24.0667 13.7791C24.0667 19.2372 19.5178 23.6642 13.9579 23.6642C8.43696 23.6642 3.888 19.2372 3.888 13.7791C3.888 8.35904 8.43696 3.81691 13.9579 3.81691C19.5178 3.81691 24.0667 8.35904 24.0667 13.7791Z" fill="white"/>
<path d="M28.3435 25.6877L41.1739 4.19992V4.04583H30.2097C29.808 4.0327 29.4852 3.71641 29.471 3.32203V1.10681C29.4844 0.711867 29.8075 0.394767 30.2097 0.381592H46.1894C46.5917 0.394767 46.9147 0.711867 46.9281 1.10681V1.60159L34.056 23.4357V23.4739H45.4118C45.6081 23.4733 45.7964 23.5495 45.9353 23.6856C46.0742 23.8217 46.1522 24.0065 46.152 24.1991V26.3741C46.1522 26.5665 46.0744 26.751 45.9358 26.8871C45.7973 27.0231 45.6092 27.0993 45.4133 27.0993H29.0822C28.6798 27.0864 28.3566 26.7691 28.3435 26.3741V25.6877Z" fill="white"/>
<path d="M58.5914 14.237L49.4935 1.4885C49.1824 0.993712 49.4935 0.381592 50.1156 0.381592H52.9956C53.3066 0.381592 53.4996 0.572437 53.6176 0.725114L60.652 10.4611L67.6886 0.727941C67.806 0.572437 68.04 0.381592 68.3114 0.381592H71.2267C71.8488 0.381592 72.1627 0.992298 71.8488 1.4885L62.6328 14.1988V26.3741C62.6197 26.7691 62.2965 27.0864 61.894 27.0993H59.328C59.132 27.0993 58.944 27.0231 58.8054 26.8871C58.6668 26.751 58.5891 26.5665 58.5892 26.3741L58.5914 14.237Z" fill="white"/>
</svg>
