<svg width="85" height="35" viewBox="0 0 85 35" fill="none" xmlns="http://www.w3.org/2000/svg">
<path fill-rule="evenodd" clip-rule="evenodd" d="M0 26H7V0H0V26Z" transform="translate(26 8)" fill="#1F2447"/>
<path fill-rule="evenodd" clip-rule="evenodd" d="M5.96471 4.90323C9.14118 4.90323 11.745 2.85 11.9285 0H0C0.183529 2.85161 2.78294 4.90323 5.96471 4.90323Z" transform="translate(24.0627 0.0222168)" fill="#1F2447"/>
<path fill-rule="evenodd" clip-rule="evenodd" d="M16.7863 7.68888C16.7863 7.68888 16.012 9.81436 12.8096 13.0527C10.8331 14.9414 8.90161 16.8293 6.97276 18.7198V0H0V34H6.97276V19.7843C9.93438 24.5225 12.9039 29.2608 16.0569 34H24.4752L13.6871 18.922L25 7.68888H16.7863Z" fill="#1F2447"/>
<path fill-rule="evenodd" clip-rule="evenodd" d="M25 7.68888H16.7872C16.7872 7.68888 16.0127 9.81436 12.8101 13.0527C10.8334 14.9414 8.90349 16.8293 6.97268 18.7198V0H0V34H6.97268V19.7843C9.9346 24.5225 12.9053 29.2608 16.0578 34H24.4769L13.6877 18.922L25 7.68888Z" transform="translate(60)" fill="#1F2447"/>
<path fill-rule="evenodd" clip-rule="evenodd" d="M0 14.0518C0 23.4186 4.9529 27.9997 11.6887 27.9997C14.9842 28.0194 18.2159 27.0557 21 25.2232V22.3816C20.1432 22.741 17.9813 23.4723 15.2545 23.4723C9.90588 23.4723 6.48799 19.4573 6.48799 12.2517C6.48799 7.92818 7.57736 3.39888 12.2833 3.39888C16.9351 3.39888 21 6.7961 21 6.7961V1.19185C19.9351 0.807751 17.1186 0 12.2833 0C5.64644 0 0 3.4481 0 14.0518Z" transform="translate(36 7)" fill="#1F2447"/>
</svg>
