<?xml version="1.0" encoding="utf-8"?>
<!-- Generator: Adobe Illustrator 22.1.0, SVG Export Plug-In . SVG Version: 6.00 Build 0)  -->
<svg version="1.1" id="drawing" xmlns="http://www.w3.org/2000/svg" xmlns:xlink="http://www.w3.org/1999/xlink" x="0px" y="0px"
	 viewBox="0 0 56.9 67.4" style="enable-background:new 0 0 56.9 67.4;" xml:space="preserve">
<style type="text/css">
	.st0{fill:none;stroke:#1E2348;stroke-width:1.5;stroke-linecap:round;stroke-miterlimit:10;}
</style>
<g>
	<g>
		<path class="st0" d="M42.7,21.5c1.3-0.7,0.4-3.2-1.6-1.7c-0.7,0.5-1.3,1-1.7,2"/>
		<path class="st0" d="M38.1,18.9c2.7-1.9,5.5-2.7,7.2-2.3c3.1,0.7,1.6,3.6,0,3c-1.4-0.5-2.6-0.5-3.4-0.2"/>
		<path class="st0" d="M48.7,25.5c-1.8-0.1-2.2,1.4-1.6,2.4c0.6,1,2.4,0.8,2.9,0.7c1.3-0.1,2.6,0.4,4,0.2c1.9-0.3,3-2.6,1.1-4.1
			c-0.3-0.2-1.2-1-1.8-1.5c-1.9-1.5-4.4-3.7-3.3-4.7c0.2-0.2,2.2-0.7,2.6,0.6c0.3,1.1-0.3,2.5-1.1,2.5"/>
		<path class="st0" d="M54.6,30.8c-0.1,1.8-0.4,3-0.9,4.7"/>
		<path class="st0" d="M25.1,34.8c-0.7,1.2-2,1.6-3.2,0.5c-2.3-2.1-5.9-6.5-6-8.3c-0.1-1.8,1.4-4.1,3.2-4c1.8,0.1,3.9,2.3,5.5,3.5
			c1.7,1.2,3,0.8,3.6,0.2c1.4-1.3-1.1-6.1,0.5-7.7c1.6-1.6,3.4-1.6,3.4-3.6s-2.2-1.2-2.4-3.9c-0.2-1.7,2.4-5,4.9-5.5
			c5.8-1,10.6,0.8,12,0.5c1.7-0.4,2.1-2.8-0.1-3.8C42.5,1.2,35.9,0.3,30.2,1c-5.6,0.6-10,1.8-15,5.2c-4.5,3.1-7.4,7.2-6.8,14.9
			c0.6,8,2.9,12.8,5.7,16.2c1.5,1.8,2.6,3.3,2.6,6.4"/>
		<path class="st0" d="M46.6,8.5c1,2,3.2,5.7,4.5,7.5"/>
		<path class="st0" d="M0.8,61.9c4.5-2,7-2.3,10-3.6c3.4-1.4,4.8-6.7,6.2-8.1"/>
		<path class="st0" d="M51.2,66.7c-1.6-2.8-5.2-9.7-5.8-13c-0.2-1.3-1.2-2.3-1.6-0.8c-0.4,1.5-0.6,6.2-2.4,8.3
			c-1.8,2.1-4.1,2.2-6.9-0.5s-14.4-8.2-15.7-11c-1.8-3.9,3.4-8.4-0.1-14.4"/>
		<path class="st0" d="M29.1,43.1c2,2.4,7.8,5.1,11.8,5.9c1.9,0.4,6.3,0.7,11.1-1.5c2.7-1.2,2.4-3,2.2-4c-0.5-1.7-1.9-2.5-1.5-4.1
			l0.1-0.5c0.1-2.5-2.1-1.9-3.3-2.1c-3.3-0.5-6.6-2.3-5.4-2.7c1-0.3,1.8-0.4,3.8-0.4c1.4,0,3.1,0.5,4.2,0"/>
	</g>
</g>
</svg>
