<?xml version="1.0" encoding="utf-8"?>
<!-- Generator: Adobe Illustrator 22.1.0, SVG Export Plug-In . SVG Version: 6.00 Build 0)  -->
<svg version="1.1" id="drawing" xmlns="http://www.w3.org/2000/svg" xmlns:xlink="http://www.w3.org/1999/xlink" x="0px" y="0px"
	 viewBox="0 0 55.6 66.5" style="enable-background:new 0 0 55.6 66.5;" xml:space="preserve">
<style type="text/css">
	.st0{fill:none;stroke:#1E2348;stroke-width:1.5;stroke-linecap:round;stroke-linejoin:round;stroke-miterlimit:10;}
</style>
<g>
	<g>
		<g>
			<g>
				<path class="st0" d="M24.2,52c1.2,1.3,2.5,2.1,5.4,2.2c2.6,0.1,6.2-1.9,8.3-4.5c2.4-3,4.6-9.7,4.7-12.4c2.7,0.9,4.1-2.4,4.5-3.7
					c1.5-4.8,3.8-2.2,2.6-1c-1.2,1.3-5,0.7-7.1-1c-3.6-2.9-5.2-14.7-6-16.9s-6.9-6.9-7.6-8.3c-0.8-1.2-0.9-3.6,0.7-4.6
					c1.5-1,3.7-1.4,7.5,0.2c1.7,0.7,6.2,3,9.1,8.4c0.9,1.6,1.2,3.7,1.7,5.7c2,7.3,5.1,10.1,6.5,18.2c1.4,8.2-2.9,16.3-6.7,19.1
					c-3.3,2.5-8.7,2.1-9.6-2.7c-0.1,0.3-0.3,2-0.4,2.7c-0.2,1.7-0.3,4.3-1,6.2c-2.6,7.4-10,6.7-14,5.2c-4.4-1.7-6-7.3-8.4-9.5
					c-2-1.8-6.1-0.1-7.8,1.2c-3.9,3.1-5.6,7.3-6,8.4"/>
				<path class="st0" d="M26.2,1.2c-6.7,0.8-10.6,1.7-15.3,7c-4.9,5.5-4.9,13.7-8,25C0,44,4.5,50.9,9,53.1c2.1,1,5.1,1.1,6.1,1
					c1.7-0.2,4.4-2.5,3.7-4.7s-1.6-4.9-2.1-6.7c0,0-1.5-4.7-1.7-6.8c-0.4-3.5,2.6-6.3,3.6-7.3c2.1-1.9,4.1-3,5.3-4.7
					c1.2-1.7,0.2-5,2.7-9.9s3.4-5.1,2.6-7.7"/>
				<path class="st0" d="M49.4,55.8c1.2,1.7,1.9,4.3,2.3,7.1"/>
				<path class="st0" d="M26,35.6c-0.3,0.8-0.8,2,0.2,2.6c0.9,0.5,4.1,0.8,5.5-0.5c1.5-1.3-0.3-3-0.9-4.5c-0.7-1.6-0.7-3,0.3-4.6
					c0.7-1.1,1.9-1.8,3.6-1.6c1.8,0.2,1.3,2.5-0.1,2.5c-1.7,0-2-3.3,1.3-2.4c0.8,0.2,1.5,0.5,2.3,0.7c1.1,0.3,2.1-0.7,1.3-1.9
					c-0.8-1.2-2-2.4-5-2.1c-1.9,0.2-2.7,0.9-3.5,1.7"/>
				<path class="st0" d="M16.4,30.9c1.2-1.6,3.3-2.2,4.7-2.3c1.8-0.1,1.8,2.2,0.4,2.5c-1.6,0.3-2.6-2.9,0.7-2.5
					c0.9,0.1,1.7,0.4,2.6,1.2"/>
				<path class="st0" d="M31.8,44.5c-2,0.8-3.6,0.7-4.3,0.6c-3.2-0.3-5.3-3-4.2-2.9c0,0,0.7,0.1,1.4,0.2s2.7,0.4,3.9,0.5
					c1.6,0.1,4.8-0.3,6.4-1.6"/>
			</g>
		</g>
	</g>
</g>
</svg>
