<?xml version="1.0" encoding="utf-8"?>
<!-- Generator: Adobe Illustrator 22.1.0, SVG Export Plug-In . SVG Version: 6.00 Build 0)  -->
<svg version="1.1" id="drawing" xmlns="http://www.w3.org/2000/svg" xmlns:xlink="http://www.w3.org/1999/xlink" x="0px" y="0px"
	 viewBox="0 0 59.7 71.4" style="enable-background:new 0 0 59.7 71.4;" xml:space="preserve">
<style type="text/css">
	.st0{fill:none;stroke:#1E2348;stroke-width:1.5;stroke-linecap:round;stroke-linejoin:round;stroke-miterlimit:10;}
</style>
<g>
	<g>
		<path class="st0" d="M15.4,27.8c-1.8,0.1-2.2,2.7-1.5,4.6c1,2.4,1,4.9,1.3,5.7c1.1,2.8,2.4,2,2.9,3.4c0.3,0.8,0.1,3.8,1.5,7.8
			c1.3,3.7,2.3,8.2-1.3,12c-1.6,1.7-4.7,2.5-4.6,8.8"/>
		<path class="st0" d="M49,63c3.4,1.7,5.5,2.7,9.9,6.2"/>
		<path class="st0" d="M18.1,57.2c-0.8,1.5-1.8,2.5-3,3.2c-1.5,0.9-9.4,4.5-14.4,8.8"/>
		<path class="st0" d="M24.2,31.2c0.9-0.8,2.1-1.4,3.4-1.2c1.7,0.2,1.3,2.3,0,2.4c-1.5,0.1-2-3.1,1.1-2.2c1.3,0.3,2.4,1.3,3.2,0.7
			c1-0.8,0.1-2.3-1.8-3.1c-1.9-0.8-4.4-0.8-7.3,1.2"/>
		<path class="st0" d="M46.3,55.5c-0.8,4.7,0.9,7.2,0.3,10.2c-0.6,2.7-2.4,4.3-5,5"/>
		<path class="st0" d="M30.6,37.8c-1,1.1-1.3,2,0.1,2.7c1,0.5,1.9,0.9,2.9,1c1.4,0.1,2.2-0.2,3-0.5c1.2-0.5,2.8-1.2,0.7-3.6
			c-1.2-1.3-0.4-4.5,0.7-5.9c1.1-1.3,2.6-1.5,4.2-0.8c1.6,0.6,0.7,2.6-0.6,2.4c-1.6-0.3-1.3-3.5,1.7-1.9c0.7,0.4,1.2,0.8,1.4,1
			c1.1,1.1,2.6-0.1,1.8-1.3c-0.8-1.3-2.3-2.9-6.6-2.9"/>
		<path class="st0" d="M18.7,46.2c0.5,3.6,4.2,7,6.2,9.3c3.2,3.9,7,6,11.1,5.5c4.9-0.6,8.3-4.9,11-9.6c2.5-4.4,3.1-10.3,3.5-13.3
			c0.5-3.8,1.3-7.4,1.3-12.4s0.1-8.1-4.1-12.2c-3.4-3.3-5.8-1.6-10.7-3C24.9,7.1,20.4,15,20.1,19c-0.3,4.7,0.7,6.8-1.5,7.9
			c-0.9,0.5-3-0.4-2.7-2.7S17,10.4,21.9,9.5c2-0.5,3-2.4,5.5-4.4c4.2-3.5,9.2-5.5,15.6-3.6c7.6,2.3,8,4.8,12.6,7.7
			c2.9,1.8,1.1,6.6-0.6,7.4c-2.6,1.3,1.2,3.4,0.8,6.2c-0.2,1.3-2.3,7.5-2.4,8.6c1.6,0,2.2,1.8,1.8,3.2c-0.3,1.3-1.5,3.6-2.5,4.9"/>
		<path class="st0" d="M32.1,41.2c-1.1,0.7-3.7,1.1-5,1.9c-0.9,0.6-1.1,2,0.1,2.4c0.5,0.1,1.4,0,2.9-0.1c1.7-0.1,2.6,0.2,4,0.1
			c3,0,4.6-0.1,6,0.9c0.5,0.3-2,2.7-9.8,1.2"/>
		<path class="st0" d="M26.4,49.9c2.2,3,3.4,2,4.8,1.8c2.1-0.2,4-0.1,5.6,0.4c1.6,0.5,2.8,0.1,3.3-0.1c1.8-1,2.2-2.3,3-6.1
			c0.6-2.9-5.6-3.8-7.1-4.6"/>
	</g>
</g>
</svg>
