<svg width="21" height="20" viewBox="0 0 21 20" fill="none" xmlns="http://www.w3.org/2000/svg">
<path d="M9 6.05448C8.36993 5.94743 7.25265 5.16088 6.73559 5.66995C6.24838 6.15062 5.94454 7.05951 5.8294 7.69421C5.70467 8.38571 4.32406 10.15 5.89657 10.7825C6.12471 10.8743 0.349616 14.252 1.06071 14.5" stroke="#1F2449" stroke-width="0.75" stroke-linecap="round" stroke-linejoin="round"/>
<path d="M14 8.5C14 8.5 13.414 9.26682 13.5491 9.74757C13.6841 10.2271 13.8594 10.5464 13.7198 10.8325C13.5792 11.1198 12.7365 10.899 12.7365 10.899C12.7365 10.899 12.6763 12.1727 12.2789 12.3757C11.761 12.638 11.127 12.4659 10.6426 12.0409C10.0254 11.4996 9.79882 10.0942 10.2029 9.2692" stroke="#1F2449" stroke-width="0.75" stroke-linecap="round" stroke-linejoin="round"/>
<path d="M10.0547 8.66771C11.4737 10.3884 12.6963 8.81629 13.8224 8.69616C14.9495 8.57814 15.0753 7.82368 14.8507 7.36109C14.6071 6.85425 13.563 6.54024 13.563 6.54024C13.563 6.54024 13.3856 5.51391 11.9812 5.50021C10.5902 5.48546 9.5158 6.23361 8.00469 7.60872C5.07789 10.2715 6.03889 11.4653 6.67432 11.9511C7.51408 12.5928 10.9259 14.1576 12.1428 14.6982C13.7696 15.4189 15.2302 15.5854 14.9697 19.5" stroke="#1F2449" stroke-width="0.75" stroke-linecap="round" stroke-linejoin="round"/>
<path d="M15 8.5C15.4248 8.61582 16.9607 8.46704 16.9986 9.21092C17.0355 9.9548 16.3324 12.2354 15.9982 12.5" stroke="#1F2449" stroke-width="0.75" stroke-linecap="round" stroke-linejoin="round"/>
<path d="M13 15.5L8 19.5" stroke="#1F2449" stroke-width="0.75" stroke-linecap="round" stroke-linejoin="round"/>
<path d="M16 3.5H17.6096L16.2681 5.5H18" stroke="#1F2449" stroke-width="0.75" stroke-linejoin="round"/>
<path d="M19 0.5H20.6106L19.2691 2.5H21" stroke="#1F2449" stroke-width="0.75" stroke-linejoin="round"/>
</svg>
