<svg width="61" height="26" viewBox="0 0 61 26" fill="none" xmlns="http://www.w3.org/2000/svg"><path fill-rule="evenodd" clip-rule="evenodd" d="M22.022 5.065c2.084 0 3.792-1.638 3.913-3.913h-7.826c.12 2.276 1.825 3.913 3.913 3.913M19.413 24.63h5.218V6.37h-5.218v18.26zM12.538 7.471s-.526 1.386-2.698 3.498a427.974 427.974 0 00-3.959 3.696V2.457H1.152V24.63h4.73v-9.272c2.008 3.09 4.022 6.18 6.16 9.272h5.71l-7.316-9.834 7.673-7.326h-5.571zm47.31 0h-5.57s-.526 1.386-2.698 3.498a442.57 442.57 0 00-3.96 3.696V2.457h-4.729V24.63h4.73v-9.272c2.009 3.09 4.023 6.18 6.162 9.272h5.71l-7.318-9.834 7.673-7.326zm-33.913 8.063c0 6.109 3.384 9.096 7.986 9.096 2.252.013 4.46-.615 6.362-1.81v-1.854c-.586.235-2.063.712-3.926.712-3.654 0-5.99-2.619-5.99-7.318 0-2.82.745-5.774 3.96-5.774 3.178 0 5.956 2.216 5.956 2.216V7.147c-.728-.25-2.652-.777-5.956-.777-4.534 0-8.392 2.248-8.392 9.164" fill="#1F2449"/></svg>