<svg width="110" height="44" viewBox="0 0 110 44" fill="none" xmlns="http://www.w3.org/2000/svg"><path fill-rule="evenodd" clip-rule="evenodd" d="M2.386 1.87c.048.767.048 1.439.048 5.083v4.22c0 2.205 0 4.1-.12 5.106-.097.696-.218 1.223-.7 1.32a3.957 3.957 0 01-.867.095c-.29 0-.386.072-.386.192 0 .168.169.24.482.24.233 0 .5-.012.775-.023.295-.013.601-.025.888-.025.578-.024 1.108-.024 1.374-.024.361 0 1.084.024 1.807.072.326.01.652.027.937.042.325.016.596.03.75.03 4.433 0 6.434-2.662 6.434-5.227 0-2.805-2.41-4.508-4.386-5.179 1.325-1.055 2.458-2.23 2.458-4.195C11.88 2.326 11.109 0 6.747 0c-.373 0-.771.015-1.206.031-.52.02-1.09.041-1.734.041-.183 0-.516-.01-.93-.023C2.205.028 1.321 0 .53 0 .17 0 0 .048 0 .216c0 .168.145.216.41.216.337 0 .747.024.94.072.795.168.987.551 1.036 1.366zm2.94 5.49c0 .193.072.24.168.264.217.049.578.072 1.133.072.795 0 1.325-.095 1.735-.455.626-.504.988-1.367.988-2.541 0-1.607-.94-3.717-3.013-3.717-.337 0-.554 0-.795.048-.168.048-.217.144-.217.408V7.36zm3.18 1.919c-.506-.36-1.06-.528-2-.576-.434-.024-.674-.024-1.036-.024-.096 0-.144.048-.144.168v5.682c0 1.583.072 1.99.843 2.302.65.264 1.205.288 1.759.288 1.084 0 2.916-.576 2.916-3.07 0-1.486-.506-3.5-2.338-4.77zm8.554-.671c0-.952.002-1.665.004-2.215.004-1.24.005-1.653-.028-2.101-.049-.72-.241-.911-.916-1.103-.169-.048-.53-.072-.82-.072-.24 0-.36-.072-.36-.216 0-.144.144-.192.457-.192.65 0 1.394.016 2.03.03.472.01.884.018 1.15.018.241 0 .665-.01 1.128-.02a79.327 79.327 0 011.596-.028c.313 0 .458.048.458.192 0 .144-.12.216-.337.216-.23 0-.35.022-.592.066l-.035.006c-.554.096-.723.383-.771 1.103-.048.647-.048 1.223-.048 4.315v2.854c0 2.973.578 4.123 1.614 4.938.94.744 1.952.816 2.675.816.915 0 2-.264 2.843-1.08 1.181-1.102 1.23-2.876 1.23-4.962V8.608c0-3.028-.024-3.643-.047-4.275l-.002-.041c-.048-.695-.217-.911-.892-1.103-.168-.048-.53-.072-.77-.072-.242 0-.362-.072-.362-.216 0-.144.145-.192.434-.192.943 0 2.143.037 2.454.046l.076.002c.085 0 .315-.006.614-.013h.001a84.173 84.173 0 011.867-.035c.289 0 .434.048.434.192 0 .144-.12.216-.362.216a2.8 2.8 0 00-.591.066l-.035.006c-.579.096-.723.383-.771 1.103l-.002.045c-.024.63-.047 1.25-.047 4.27v2.182c0 2.278-.24 4.676-2.024 6.138-1.494 1.247-3.108 1.462-4.482 1.462-1.108 0-3.301-.047-4.843-1.39-1.085-.935-1.928-2.445-1.928-5.394V8.607zm16.65 8.559c0 .455.072.551.41.695.916.408 2.217.527 3.446.527 1.132 0 2.53-.12 3.542-.839 1.542-1.079 2.12-2.302 2.12-3.812 0-1.846-.867-3.404-3.662-4.939l-.868-.48c-1.903-1.054-2.24-1.773-2.24-2.685 0-1.39 1.373-2.181 2.89-2.181 1.375 0 2.05.575 2.363.959.457.527.554 1.15.554 1.342 0 .24.072.36.217.36.168 0 .265-.216.265-.647 0-1.143.036-1.765.057-2.123a6.21 6.21 0 00.015-.323c0-.144-.096-.216-.29-.264-.553-.143-1.638-.335-3.011-.335-2.94 0-5.35 1.606-5.35 4.1 0 1.797.82 3.164 3.325 4.627l1.23.719c1.879 1.103 2.096 1.99 2.096 2.877 0 1.439-1.108 2.59-2.94 2.59-1.325 0-2.916-.504-3.373-2.015a3.776 3.776 0 01-.193-1.054c0-.144-.024-.336-.217-.336-.169 0-.265.216-.265.527l-.005.059c-.029.406-.116 1.604-.116 2.65zm13.085-8.56c0-3.092 0-3.668-.024-4.315-.049-.695-.265-.935-.723-1.08a2.715 2.715 0 00-.771-.095c-.217 0-.338-.048-.338-.24 0-.12.169-.168.506-.168.425 0 1.037.014 1.605.027.495.011.958.021 1.239.021.236 0 .64-.01 1.088-.02.556-.013 1.18-.028 1.635-.028.265 0 .434.048.434.168 0 .192-.12.24-.338.24a2.95 2.95 0 00-.626.072c-.579.096-.747.384-.795 1.103-.049.647-.049 1.223-.049 4.316v3.596c0 1.966 0 3.596.097 4.46.072.55.217.863.843.958.29.049.771.073 1.084.073.241 0 .338.12.338.215 0 .144-.169.216-.41.216-.85 0-1.719-.027-2.399-.047a40.734 40.734 0 00-1.023-.025c-.207 0-.593.014-1.033.029-.582.02-1.258.043-1.738.043-.265 0-.41-.072-.41-.216 0-.096.073-.215.338-.215.313 0 .554-.024.747-.073.433-.095.554-.383.626-.982.096-.84.096-2.47.096-4.436V8.608zm10.843 8.943c-.41-.144-.674-.623-.723-2.206l-.24-8.32h.071c.149.13.537.537 1.081 1.108.96 1.005 2.407 2.52 3.884 3.928a500.888 500.888 0 006.192 5.874c.217.216.506.431.868.431.169 0 .337-.191.337-.647l.241-12.85c.024-1.152.193-1.511.771-1.68.265-.071.434-.071.651-.071.241 0 .361-.096.361-.216 0-.168-.192-.192-.481-.192-.7 0-1.289.022-1.672.036-.185.007-.322.012-.4.012-.18 0-.462-.007-.806-.016-.535-.014-1.219-.032-1.894-.032-.313 0-.53.024-.53.192 0 .12.073.216.338.216.289 0 .795 0 1.108.12.506.191.699.551.723 1.798l.217 9.063h-.096c-.14-.129-.78-.774-1.575-1.575a327.378 327.378 0 00-3.004-3.005 468.58 468.58 0 01-6.203-6.166l-.327-.33-.083-.084c-.323-.323-.588-.588-.833-.588-.217 0-.361.287-.361.695l-.193 12.084c-.024 1.774-.096 2.325-.65 2.47-.29.071-.675.095-.965.095-.192 0-.337.096-.337.216 0 .192.193.216.482.216.763 0 1.49-.036 1.921-.057.182-.009.311-.015.368-.015.134 0 .34.008.608.02.508.021 1.241.052 2.14.052.288 0 .481-.048.481-.216 0-.12-.12-.216-.361-.216-.338 0-.747-.024-1.109-.144zm17.205-8.942c0-3.093 0-3.669-.024-4.316-.049-.695-.241-.911-.916-1.103-.169-.048-.53-.072-.843-.072-.217 0-.362-.072-.362-.216 0-.144.169-.192.482-.192.638 0 1.356.016 1.965.03.45.01.84.018 1.095.018l1.02.003c1.61.006 4.45.016 4.764-.003.287-.018.548-.062.732-.094.063-.01.116-.02.16-.026.051-.01.103-.03.154-.048.066-.024.128-.047.183-.047.12 0 .144.095.144.191a.94.94 0 01-.029.18c-.039.18-.106.494-.14 1.14-.008.072-.019.222-.031.397v.006c-.026.343-.057.781-.089.939l-.005.018c-.025.105-.077.317-.236.317-.145 0-.169-.096-.169-.263 0-.144-.024-.504-.144-.744-.17-.36-.338-.647-1.398-.743-.361-.048-2.891-.096-3.325-.096-.097 0-.145.072-.145.192v5.035c0 .12.024.216.145.216.482 0 3.229 0 3.71-.048.507-.048.82-.096 1.013-.312.056-.048.101-.093.14-.132.08-.078.133-.132.197-.132.096 0 .169.096.169.216 0 .077-.02.244-.067.629l-.102.858a20.562 20.562 0 00-.096 1.366c0 .168-.024.456-.217.456-.145 0-.193-.072-.193-.168a5.617 5.617 0 01-.02-.248 4.261 4.261 0 00-.052-.495c-.12-.408-.386-.72-1.181-.791-.386-.049-2.795-.096-3.325-.096-.097 0-.12.096-.12.216v1.63c0 .205-.003.499-.005.827v.003a66.5 66.5 0 00.004 2.19c.048 1.391.699 1.703 2.868 1.703.554 0 1.446-.024 2-.264.53-.24.771-.671.915-1.51.049-.216.097-.312.242-.312.168 0 .192.264.192.48 0 .455-.168 1.846-.289 2.253-.144.528-.337.528-1.132.528-1.59 0-2.868-.024-3.904-.072l-.674-.016h-.002c-.716-.018-1.3-.032-1.782-.032-.098 0-.233.004-.392.009-.231.006-.513.015-.813.015-.506.024-1.036.048-1.47.048-.265 0-.41-.072-.41-.216 0-.096.073-.216.338-.216.313 0 .554-.024.747-.072.434-.096.554-.48.626-1.079.097-.863.097-2.47.097-4.34V8.608zm11.3 8.559c0 .455.073.551.41.695.916.408 2.217.527 3.446.527 1.133 0 2.53-.12 3.542-.839 1.542-1.079 2.12-2.302 2.12-3.812 0-1.846-.867-3.404-3.662-4.939l-.867-.48c-1.904-1.054-2.242-1.773-2.242-2.685 0-1.39 1.374-2.181 2.892-2.181 1.374 0 2.049.575 2.362.959.458.527.554 1.15.554 1.342 0 .24.072.36.217.36.168 0 .265-.216.265-.647 0-1.143.037-1.765.058-2.123.008-.145.014-.247.014-.323 0-.144-.096-.216-.289-.264-.554-.143-1.638-.335-3.012-.335-2.94 0-5.35 1.606-5.35 4.1 0 1.797.82 3.164 3.326 4.627l1.229.719c1.88 1.103 2.096 1.99 2.096 2.877 0 1.439-1.108 2.59-2.94 2.59-1.325 0-2.915-.504-3.373-2.015a3.784 3.784 0 01-.193-1.054c0-.144-.024-.336-.217-.336-.169 0-.265.216-.265.527l-.004.055c-.03.403-.117 1.604-.117 2.655zm12.41.695c-.337-.144-.41-.24-.41-.695 0-1.052.088-2.256.117-2.657l.004-.053c0-.311.096-.527.265-.527.193 0 .217.192.217.336 0 .263.072.695.193 1.054.457 1.51 2.048 2.014 3.373 2.014 1.832 0 2.94-1.15 2.94-2.589 0-.887-.217-1.774-2.096-2.877l-1.229-.72c-2.506-1.462-3.326-2.829-3.326-4.627 0-2.493 2.41-4.1 5.35-4.1 1.374 0 2.458.193 3.012.336.193.048.289.12.289.264 0 .076-.006.178-.014.323-.022.358-.058.98-.058 2.123 0 .431-.097.647-.265.647-.145 0-.217-.12-.217-.36 0-.192-.097-.815-.554-1.342-.314-.384-.988-.96-2.362-.96-1.518 0-2.892.792-2.892 2.182 0 .912.338 1.63 2.241 2.686l.868.479c2.795 1.535 3.663 3.093 3.663 4.94 0 1.51-.579 2.732-2.121 3.811-1.012.72-2.41.84-3.542.84-1.229 0-2.53-.12-3.446-.528zM3.373 27.48c.048.767.048 1.438.048 5.083v4.22c0 2.325 0 4.22-.12 5.226-.073.695-.217 1.103-.699 1.199a3.963 3.963 0 01-.868.096c-.289 0-.385.072-.385.191 0 .168.169.24.482.24.548 0 1.276-.023 1.903-.043.476-.015.894-.029 1.133-.029.254 0 .64.011 1.11.024.736.021 1.68.048 2.65.048.264 0 .457-.072.457-.24 0-.12-.12-.191-.386-.191-.361 0-.891-.048-1.228-.096-.723-.096-.892-.528-.965-1.175-.096-1.03-.096-2.925-.096-5.25v-4.22c0-3.645 0-4.316.048-5.083.049-.84.241-1.247.892-1.366.29-.049.482-.073.723-.073s.386-.048.386-.24c0-.143-.193-.191-.507-.191-.505 0-1.165.022-1.756.041-.48.016-.913.03-1.183.03-.326 0-.83-.015-1.368-.032-.616-.019-1.276-.04-1.765-.04-.385 0-.578.049-.578.193 0 .191.144.24.385.24.29 0 .603.023.868.095.53.12.77.528.82 1.343zm12.314 13.474c.048 1.583.313 2.062.723 2.206.36.12.77.144 1.108.144.24 0 .361.096.361.216 0 .167-.192.215-.482.215-.897 0-1.63-.03-2.138-.052-.27-.011-.475-.02-.609-.02-.057 0-.186.007-.368.016-.431.02-1.158.056-1.92.056-.29 0-.483-.024-.483-.215 0-.12.145-.216.338-.216.289 0 .674-.024.963-.096.555-.144.627-.695.651-2.47l.193-12.083c0-.408.144-.695.361-.695.245 0 .51.264.832.587l.084.084.328.33c.932.943 3.602 3.64 6.202 6.167.8.783 2.022 2.014 3.006 3.006.794.8 1.433 1.445 1.573 1.573h.096l-.217-9.063c-.024-1.246-.217-1.606-.723-1.798-.313-.12-.819-.12-1.108-.12-.265 0-.338-.095-.338-.215 0-.168.217-.192.53-.192.676 0 1.36.018 1.894.032.344.009.626.016.805.016.079 0 .216-.005.401-.012.384-.014.973-.036 1.672-.036.29 0 .482.024.482.192 0 .12-.12.216-.362.216-.217 0-.385 0-.65.071-.579.168-.747.528-.771 1.679l-.242 12.85c0 .456-.168.648-.337.648-.361 0-.65-.216-.867-.432a504.368 504.368 0 01-6.193-5.874c-1.477-1.408-2.924-2.923-3.884-3.929-.544-.57-.932-.975-1.08-1.105h-.073l.242 8.32zm18.385 1.822c0 .456.072.552.41.696.915.407 2.217.527 3.445.527 1.132 0 2.53-.12 3.542-.84 1.542-1.078 2.12-2.3 2.12-3.811 0-1.846-.867-3.405-3.662-4.94l-.868-.479c-1.903-1.054-2.24-1.774-2.24-2.685 0-1.39 1.373-2.182 2.891-2.182 1.374 0 2.048.576 2.362.96.458.527.554 1.15.554 1.342 0 .24.072.36.217.36.169 0 .265-.216.265-.648 0-1.143.037-1.764.058-2.122.008-.145.014-.247.014-.323 0-.144-.096-.216-.289-.264-.554-.144-1.639-.336-3.012-.336-2.94 0-5.35 1.607-5.35 4.1 0 1.798.82 3.165 3.326 4.628l1.229.719c1.88 1.103 2.096 1.99 2.096 2.877 0 1.438-1.108 2.589-2.94 2.589-1.325 0-2.916-.503-3.373-2.014a3.781 3.781 0 01-.193-1.055c0-.144-.024-.335-.217-.335-.169 0-.265.216-.265.527l-.004.06c-.03.408-.116 1.604-.116 2.65zm15.108-8.56c0-3.092 0-3.667-.024-4.315-.048-.695-.265-.935-.723-1.079a2.722 2.722 0 00-.77-.095c-.218 0-.338-.049-.338-.24 0-.12.168-.168.506-.168.425 0 1.036.014 1.605.026.495.012.958.022 1.238.022.237 0 .64-.01 1.088-.02.557-.013 1.181-.028 1.635-.028.265 0 .434.048.434.168 0 .192-.12.24-.337.24a2.96 2.96 0 00-.627.071c-.578.096-.747.384-.795 1.104-.048.647-.048 1.222-.048 4.315v3.596c0 1.967 0 3.597.096 4.46.072.552.217.863.844.959.289.048.77.072 1.084.072.24 0 .337.12.337.216 0 .144-.168.216-.41.216-.85 0-1.718-.027-2.398-.048h-.003c-.436-.013-.794-.024-1.02-.024-.207 0-.591.013-1.029.028h-.005a57.2 57.2 0 01-1.737.044c-.266 0-.41-.072-.41-.216 0-.096.072-.216.337-.216.313 0 .554-.024.747-.072.434-.096.555-.384.627-.983.096-.839.096-2.47.096-4.435v-3.597zm13.711 6.379c-.024-.408-.048-1.966-.048-4.124v-2.566c0-1.606 0-3.284.024-3.98 0-.24.073-.335.265-.407.169-.096.867-.144 1.302-.144 1.662 0 3.975.216 5.928 1.942.94.815 1.976 2.494 1.976 5.083 0 2.11-.434 3.932-1.808 5.059-1.277 1.055-2.699 1.39-4.627 1.39-1.662 0-2.506-.431-2.77-.815-.17-.216-.218-.935-.242-1.438zM60 34.218c0-3.093 0-3.668-.025-4.316-.048-.695-.24-.91-.915-1.103-.169-.047-.53-.071-.844-.071-.217 0-.361-.073-.361-.216 0-.144.169-.192.482-.192.638 0 1.356.016 1.965.03.45.01.84.018 1.095.018.271 0 .693-.008 1.184-.018.69-.014 1.517-.03 2.262-.03 2.65 0 6.217 0 8.53 2.325 1.06 1.056 2 2.758 2 5.18 0 2.565-1.108 4.507-2.313 5.682-.964.958-3.205 2.397-7.109 2.397-.589 0-1.262-.042-1.924-.083-.204-.013-.407-.026-.605-.037-.844-.072-1.615-.12-2.145-.12-.099 0-.233.004-.392.009-.231.007-.514.015-.813.015a33.6 33.6 0 01-1.47.048c-.265 0-.41-.072-.41-.215 0-.096.073-.216.337-.216.314 0 .555-.024.748-.072.434-.096.554-.48.626-1.08.097-.862.097-2.469.097-4.339v-3.596zm20.77-4.316c.025.648.025 1.223.025 4.316v3.596c0 1.87 0 3.477-.097 4.34-.072.6-.192.983-.626 1.078a3.122 3.122 0 01-.747.072c-.265 0-.337.12-.337.216 0 .144.144.216.41.216.433 0 .964-.024 1.47-.048.299 0 .581-.008.812-.015.16-.005.294-.009.392-.009.48 0 1.057.014 1.766.031l.692.017c1.036.048 2.313.072 3.904.072.795 0 .988 0 1.132-.527.12-.408.29-1.799.29-2.254 0-.215-.025-.48-.193-.48-.145 0-.193.096-.242.312-.144.84-.385 1.271-.915 1.51-.554.24-1.446.264-2 .264-2.17 0-2.82-.311-2.868-1.702a67.989 67.989 0 01-.004-2.193l.004-.828v-1.63c0-.12.024-.216.12-.216.53 0 2.94.048 3.326.096.795.072 1.06.384 1.18.791.032.169.043.337.053.493.006.089.011.173.02.25 0 .096.048.169.193.169.193 0 .217-.288.217-.456 0-.144.048-.959.096-1.367l.102-.853c.047-.388.067-.556.067-.633 0-.12-.072-.216-.169-.216-.064 0-.118.053-.196.131-.04.04-.085.085-.141.133-.193.215-.506.263-1.012.311-.482.048-3.23.048-3.711.048-.12 0-.145-.096-.145-.215v-5.035c0-.12.048-.192.145-.192.433 0 2.964.047 3.325.095 1.06.097 1.229.384 1.398.744.12.24.144.6.144.743 0 .168.025.264.169.264.159 0 .21-.213.236-.318l.005-.018c.032-.157.063-.596.088-.938.013-.178.024-.33.032-.404.034-.645.101-.96.14-1.14a.894.894 0 00.03-.18c0-.095-.025-.19-.145-.19a.573.573 0 00-.184.047c-.05.018-.102.038-.154.048a6.389 6.389 0 00-.16.026 6.792 6.792 0 01-.731.094c-.315.018-3.154.008-4.764.003l-1.02-.003c-.255 0-.646-.009-1.095-.019-.61-.013-1.327-.03-1.965-.03-.313 0-.482.049-.482.193 0 .143.145.216.361.216.314 0 .675.023.844.071.675.192.867.408.915 1.103zM97.903 35.8c0 .216.048.288.193.36.458.144 1.084.192 1.615.192.843 0 1.132-.072 1.493-.336.651-.455 1.374-1.343 1.374-3.02 0-2.878-1.976-3.621-3.23-3.621-.529 0-1.035.024-1.252.072-.145.048-.193.12-.193.288V35.8zm-2.723-5.898c.024.648.024 1.223.024 4.316v3.596c0 1.87 0 3.477-.096 4.34-.073.6-.193.983-.627 1.078a3.127 3.127 0 01-.747.073c-.265 0-.337.12-.337.215 0 .144.144.216.41.216.496 0 1.17-.025 1.722-.045.385-.015.712-.027.88-.027.105 0 .373.008.729.02.705.02 1.756.052 2.572.052.265 0 .434-.072.434-.215 0-.097-.096-.216-.265-.216-.265 0-.723-.024-1.036-.072-.65-.096-.747-.48-.82-1.08-.096-.862-.12-2.445-.12-4.339v-.288c0-.12.072-.167.169-.167l1.903.048c.145 0 .266.024.386.143.118.139.359.485.665.924.382.55.866 1.244 1.335 1.858 1.181 1.582 1.976 2.541 2.892 2.996.554.288 1.132.408 2.313.408h2.024c.265 0 .41-.048.41-.216 0-.096-.096-.216-.265-.216s-.289 0-.506-.048a6.135 6.135 0 00-.061-.012c-.362-.074-1.09-.221-2.204-1.33-1.211-1.204-2.615-2.925-4.359-5.06a95.434 95.434 0 00-.292-.358c2.072-1.655 2.94-2.997 2.94-4.508 0-1.366-.892-2.398-1.494-2.805-1.133-.743-2.675-.863-4.025-.863-.316 0-.936.011-1.571.023-.67.012-1.359.025-1.73.025-.167 0-.47-.007-.841-.016a90.502 90.502 0 00-2.05-.032c-.314 0-.482.048-.482.192 0 .143.144.216.361.216.313 0 .675.023.843.071.675.192.868.408.916 1.103z" fill="#fff"/></svg>