<svg width="131" height="36" viewBox="0 0 131 36" fill="none" xmlns="http://www.w3.org/2000/svg"><path fill-rule="evenodd" clip-rule="evenodd" d="M86.842.763h.518l5.177 30.955c.444 1.54 1.258 2.42 2.885 2.42h.962l-.148.807H84.549l.148-.88h.887c1.628 0 2.737-.513 2.441-1.98l-1.479-9.096H74.637l-3.476 5.501c-3.033 5.135-2.367 5.575.666 5.575h.665l-.074.88h-9.837l.148-.88h.444c2.293 0 3.106-.733 5.917-5.061L86.842.763zM19.236 27.757c.222-3.228-1.331-6.015-6.287-8.069l-3.772-1.54c-4.882-2.054-6.657-5.282-6.435-8.95.444-5.794 5.177-8.582 11.095-8.142 4.068.294 6.583 1.32 8.802 2.861l-.37 4.915h-.444c-1.553-4.768-4.512-6.235-8.062-6.455-3.773-.22-6.805 2.127-7.027 5.354-.222 2.788.74 4.989 4.66 6.676l2.958 1.247c3.92 1.613 9.32 4.034 8.877 10.562-.444 6.015-4.956 9.83-11.91 9.39-4.363-.294-7.914-1.468-10.576-3.595l.37-5.575h.443c2.22 6.896 5.992 7.41 9.32 7.63 5.4.293 8.136-2.568 8.358-6.31zm29.217 3.74c0 2.128.74 2.642 2.959 2.642h1.923v.806H39.281v-.88h1.702c2.44 0 3.18-.513 3.18-2.567V3.257h-5.547c-4.143 0-6.14 1.76-6.805 5.648h-.444V1.717h29.735v7.188h-.37c-.592-3.888-2.59-5.648-6.805-5.648h-5.548v28.24h.074zm72.488 2.642c-2.219 0-2.959-.514-2.959-2.641h-.148V3.257h5.547c4.217 0 6.214 1.76 6.805 5.648h.444V1.717h-29.734v7.188h.443c.666-3.888 2.663-5.648 6.805-5.648h5.548v28.24c0 2.055-.74 2.568-3.181 2.568h-1.701v.88h14.054v-.806h-1.923zM86.176 20.274h-9.763l7.766-12.177 1.997 12.177z" fill="#fff"/></svg>