<svg width="72" height="28" viewBox="0 0 72 28" fill="none" xmlns="http://www.w3.org/2000/svg"><path fill-rule="evenodd" clip-rule="evenodd" d="M27.954 13.78C27.954 6.144 21.734 0 13.958 0 6.182 0 0 6.145 0 13.78c0 7.632 6.182 13.7 13.958 13.7s13.996-6.068 13.996-13.702zm-3.887 0c0 5.457-4.55 9.884-10.11 9.884-5.52 0-10.069-4.427-10.069-9.885 0-5.42 4.549-9.962 10.07-9.962 5.56 0 10.109 4.542 10.109 9.962z" fill="#fff"/><path d="M28.343 25.688L41.173 4.2v-.154H30.21a.758.758 0 01-.739-.724V1.107a.758.758 0 01.739-.725h15.98c.402.013.725.33.738.725v.495L34.056 23.436v.038h11.356c.196 0 .384.075.523.212.14.136.217.32.217.513v2.175a.718.718 0 01-.216.513.746.746 0 01-.523.212h-16.33a.757.757 0 01-.74-.725v-.686zm30.248-11.451L49.493 1.489c-.31-.495 0-1.107.623-1.107h2.88c.31 0 .504.19.622.343l7.034 9.736L67.689.728c.117-.156.351-.346.622-.346h2.916c.622 0 .936.61.622 1.107l-9.216 12.71v12.175a.757.757 0 01-.739.725h-2.566a.746.746 0 01-.523-.212.718.718 0 01-.216-.513l.002-12.137z" fill="#fff"/></svg>