<svg width="85" height="35" viewBox="0 0 85 35" fill="none" xmlns="http://www.w3.org/2000/svg"><path fill-rule="evenodd" clip-rule="evenodd" d="M26 34h7V8h-7v26zm4.027-29.075c3.177 0 5.78-2.053 5.964-4.903H24.063c.183 2.852 2.783 4.903 5.964 4.903zM16.786 7.689s-.774 2.125-3.976 5.364a639.757 639.757 0 00-5.837 5.667V0H0v34h6.973V19.784c2.961 4.739 5.93 9.477 9.084 14.216h8.418L13.687 18.922 25 7.689h-8.214zm68.214 0h-8.213s-.774 2.125-3.977 5.364a663.44 663.44 0 00-5.837 5.667V0H60v34h6.973V19.784c2.962 4.739 5.932 9.477 9.085 14.216h8.419l-10.79-15.078L85 7.689zM36 21.052C36 30.419 40.953 35 47.689 35c3.295.02 6.527-.944 9.311-2.777v-2.841c-.857.359-3.019 1.09-5.745 1.09-5.35 0-8.767-4.015-8.767-11.22 0-4.324 1.09-8.853 5.795-8.853 4.652 0 8.717 3.397 8.717 3.397V8.192C55.935 7.808 53.119 7 48.283 7 41.646 7 36 10.448 36 21.052z" fill="#1F2447"/></svg>