<svg version="1.1" id="drawing" xmlns="http://www.w3.org/2000/svg" x="0" y="0" viewBox="0 0 56.9 67.4" xml:space="preserve"><style>.st0{fill:none;stroke:#1e2348;stroke-width:1.5;stroke-linecap:round;stroke-miterlimit:10}</style><path class="st0" d="M42.7 21.5c1.3-.7.4-3.2-1.6-1.7-.7.5-1.3 1-1.7 2"/><path class="st0" d="M38.1 18.9c2.7-1.9 5.5-2.7 7.2-2.3 3.1.7 1.6 3.6 0 3-1.4-.5-2.6-.5-3.4-.2m6.8 6.1c-1.8-.1-2.2 1.4-1.6 2.4.6 1 2.4.8 2.9.7 1.3-.1 2.6.4 4 .2 1.9-.3 3-2.6 1.1-4.1-.3-.2-1.2-1-1.8-1.5-1.9-1.5-4.4-3.7-3.3-4.7.2-.2 2.2-.7 2.6.6.3 1.1-.3 2.5-1.1 2.5m3.1 9.2c-.1 1.8-.4 3-.9 4.7m-28.6-.7c-.7 1.2-2 1.6-3.2.5-2.3-2.1-5.9-6.5-6-8.3-.1-1.8 1.4-4.1 3.2-4 1.8.1 3.9 2.3 5.5 3.5 1.7 1.2 3 .8 3.6.2 1.4-1.3-1.1-6.1.5-7.7 1.6-1.6 3.4-1.6 3.4-3.6s-2.2-1.2-2.4-3.9c-.2-1.7 2.4-5 4.9-5.5 5.8-1 10.6.8 12 .5 1.7-.4 2.1-2.8-.1-3.8C42.5 1.2 35.9.3 30.2 1c-5.6.6-10 1.8-15 5.2-4.5 3.1-7.4 7.2-6.8 14.9.6 8 2.9 12.8 5.7 16.2 1.5 1.8 2.6 3.3 2.6 6.4M46.6 8.5c1 2 3.2 5.7 4.5 7.5M.8 61.9c4.5-2 7-2.3 10-3.6 3.4-1.4 4.8-6.7 6.2-8.1"/><path class="st0" d="M51.2 66.7c-1.6-2.8-5.2-9.7-5.8-13-.2-1.3-1.2-2.3-1.6-.8-.4 1.5-.6 6.2-2.4 8.3-1.8 2.1-4.1 2.2-6.9-.5s-14.4-8.2-15.7-11c-1.8-3.9 3.4-8.4-.1-14.4"/><path class="st0" d="M29.1 43.1c2 2.4 7.8 5.1 11.8 5.9 1.9.4 6.3.7 11.1-1.5 2.7-1.2 2.4-3 2.2-4-.5-1.7-1.9-2.5-1.5-4.1l.1-.5c.1-2.5-2.1-1.9-3.3-2.1-3.3-.5-6.6-2.3-5.4-2.7 1-.3 1.8-.4 3.8-.4 1.4 0 3.1.5 4.2 0"/></svg>