<svg version="1.1" id="drawing" xmlns="http://www.w3.org/2000/svg" x="0" y="0" viewBox="0 0 55.6 66.5" xml:space="preserve"><style>.st0{fill:none;stroke:#1e2348;stroke-width:1.5;stroke-linecap:round;stroke-linejoin:round;stroke-miterlimit:10}</style><path class="st0" d="M24.2 52c1.2 1.3 2.5 2.1 5.4 2.2 2.6.1 6.2-1.9 8.3-4.5 2.4-3 4.6-9.7 4.7-12.4 2.7.9 4.1-2.4 4.5-3.7 1.5-4.8 3.8-2.2 2.6-1-1.2 1.3-5 .7-7.1-1-3.6-2.9-5.2-14.7-6-16.9S29.7 7.8 29 6.4c-.8-1.2-.9-3.6.7-4.6 1.5-1 3.7-1.4 7.5.2 1.7.7 6.2 3 9.1 8.4.9 1.6 1.2 3.7 1.7 5.7 2 7.3 5.1 10.1 6.5 18.2 1.4 8.2-2.9 16.3-6.7 19.1-3.3 2.5-8.7 2.1-9.6-2.7-.1.3-.3 2-.4 2.7-.2 1.7-.3 4.3-1 6.2-2.6 7.4-10 6.7-14 5.2-4.4-1.7-6-7.3-8.4-9.5-2-1.8-6.1-.1-7.8 1.2-3.9 3.1-5.6 7.3-6 8.4"/><path class="st0" d="M26.2 1.2c-6.7.8-10.6 1.7-15.3 7-4.9 5.5-4.9 13.7-8 25C0 44 4.5 50.9 9 53.1c2.1 1 5.1 1.1 6.1 1 1.7-.2 4.4-2.5 3.7-4.7s-1.6-4.9-2.1-6.7c0 0-1.5-4.7-1.7-6.8-.4-3.5 2.6-6.3 3.6-7.3 2.1-1.9 4.1-3 5.3-4.7 1.2-1.7.2-5 2.7-9.9s3.4-5.1 2.6-7.7m20.2 49.5c1.2 1.7 1.9 4.3 2.3 7.1M26 35.6c-.3.8-.8 2 .2 2.6.9.5 4.1.8 5.5-.5 1.5-1.3-.3-3-.9-4.5-.7-1.6-.7-3 .3-4.6.7-1.1 1.9-1.8 3.6-1.6 1.8.2 1.3 2.5-.1 2.5-1.7 0-2-3.3 1.3-2.4.8.2 1.5.5 2.3.7 1.1.3 2.1-.7 1.3-1.9s-2-2.4-5-2.1c-1.9.2-2.7.9-3.5 1.7"/><path class="st0" d="M16.4 30.9c1.2-1.6 3.3-2.2 4.7-2.3 1.8-.1 1.8 2.2.4 2.5-1.6.3-2.6-2.9.7-2.5.9.1 1.7.4 2.6 1.2m7 14.7c-2 .8-3.6.7-4.3.6-3.2-.3-5.3-3-4.2-2.9l1.4.2c.7.1 2.7.4 3.9.5 1.6.1 4.8-.3 6.4-1.6"/></svg>