<svg version="1.1" id="drawing" xmlns="http://www.w3.org/2000/svg" x="0" y="0" viewBox="0 0 59.7 71.4" xml:space="preserve"><style>.st0{fill:none;stroke:#1e2348;stroke-width:1.5;stroke-linecap:round;stroke-linejoin:round;stroke-miterlimit:10}</style><path class="st0" d="M15.4 27.8c-1.8.1-2.2 2.7-1.5 4.6 1 2.4 1 4.9 1.3 5.7 1.1 2.8 2.4 2 2.9 3.4.3.8.1 3.8 1.5 7.8 1.3 3.7 2.3 8.2-1.3 12-1.6 1.7-4.7 2.5-4.6 8.8M49 63c3.4 1.7 5.5 2.7 9.9 6.2"/><path class="st0" d="M18.1 57.2c-.8 1.5-1.8 2.5-3 3.2-1.5.9-9.4 4.5-14.4 8.8m23.5-38c.9-.8 2.1-1.4 3.4-1.2 1.7.2 1.3 2.3 0 2.4-1.5.1-2-3.1 1.1-2.2 1.3.3 2.4 1.3 3.2.7 1-.8.1-2.3-1.8-3.1-1.9-.8-4.4-.8-7.3 1.2m23.5 26.5c-.8 4.7.9 7.2.3 10.2-.6 2.7-2.4 4.3-5 5m-11-32.9c-1 1.1-1.3 2 .1 2.7 1 .5 1.9.9 2.9 1 1.4.1 2.2-.2 3-.5 1.2-.5 2.8-1.2.7-3.6-1.2-1.3-.4-4.5.7-5.9 1.1-1.3 2.6-1.5 4.2-.8 1.6.6.7 2.6-.6 2.4-1.6-.3-1.3-3.5 1.7-1.9.7.4 1.2.8 1.4 1 1.1 1.1 2.6-.1 1.8-1.3-.8-1.3-2.3-2.9-6.6-2.9"/><path class="st0" d="M18.7 46.2c.5 3.6 4.2 7 6.2 9.3 3.2 3.9 7 6 11.1 5.5 4.9-.6 8.3-4.9 11-9.6 2.5-4.4 3.1-10.3 3.5-13.3.5-3.8 1.3-7.4 1.3-12.4s.1-8.1-4.1-12.2c-3.4-3.3-5.8-1.6-10.7-3C24.9 7.1 20.4 15 20.1 19c-.3 4.7.7 6.8-1.5 7.9-.9.5-3-.4-2.7-2.7s1.1-13.8 6-14.7c2-.5 3-2.4 5.5-4.4C31.6 1.6 36.6-.4 43 1.5c7.6 2.3 8 4.8 12.6 7.7 2.9 1.8 1.1 6.6-.6 7.4-2.6 1.3 1.2 3.4.8 6.2-.2 1.3-2.3 7.5-2.4 8.6 1.6 0 2.2 1.8 1.8 3.2-.3 1.3-1.5 3.6-2.5 4.9"/><path class="st0" d="M32.1 41.2c-1.1.7-3.7 1.1-5 1.9-.9.6-1.1 2 .1 2.4.5.1 1.4 0 2.9-.1 1.7-.1 2.6.2 4 .1 3 0 4.6-.1 6 .9.5.3-2 2.7-9.8 1.2"/><path class="st0" d="M26.4 49.9c2.2 3 3.4 2 4.8 1.8 2.1-.2 4-.1 5.6.4 1.6.5 2.8.1 3.3-.1 1.8-1 2.2-2.3 3-6.1.6-2.9-5.6-3.8-7.1-4.6"/></svg>