<svg width="21" height="20" viewBox="0 0 21 20" fill="none" xmlns="http://www.w3.org/2000/svg"><path d="M9 6.054c-.63-.107-1.747-.893-2.264-.384-.488.48-.791 1.39-.907 2.024-.124.692-1.505 2.456.068 3.089.228.091-5.547 3.469-4.836 3.717M14 8.5s-.586.767-.45 1.248c.134.48.31.798.17 1.085-.14.287-.984.066-.984.066s-.06 1.274-.457 1.477c-.518.262-1.152.09-1.636-.335-.618-.541-.844-1.947-.44-2.772" stroke="#1F2449" stroke-width=".75" stroke-linecap="round" stroke-linejoin="round"/><path d="M10.055 8.668c1.419 1.72 2.641.148 3.767.028 1.128-.118 1.253-.872 1.029-1.335-.244-.507-1.288-.82-1.288-.82s-.177-1.027-1.582-1.04c-1.39-.016-2.465.733-3.976 2.108-2.927 2.662-1.966 3.856-1.33 4.342.84.642 4.25 2.207 5.468 2.747 1.627.72 3.087.887 2.827 4.802" stroke="#1F2449" stroke-width=".75" stroke-linecap="round" stroke-linejoin="round"/><path d="M15 8.5c.425.116 1.96-.033 1.999.71.037.745-.667 3.025-1 3.29M13 15.5l-5 4" stroke="#1F2449" stroke-width=".75" stroke-linecap="round" stroke-linejoin="round"/><path d="M16 3.5h1.61l-1.342 2H18m1-5h1.61l-1.34 2H21" stroke="#1F2449" stroke-width=".75" stroke-linejoin="round"/></svg>